<svg width="12" height="12" viewBox="0 0 12 12" fill="none" xmlns="http://www.w3.org/2000/svg">
<mask id="path-1-inside-1_6_529" fill="white">
<path fill-rule="evenodd" clip-rule="evenodd" d="M0.343146 10.5961C0.0502528 10.889 0.0502528 11.3638 0.343146 11.6567C0.636039 11.9496 1.11091 11.9496 1.40381 11.6567L5.99994 7.0606L10.5962 11.6569C10.8891 11.9497 11.364 11.9497 11.6569 11.6569C11.9497 11.364 11.9497 10.8891 11.6569 10.5962L7.0606 5.99994L11.6569 1.40368C11.9497 1.11079 11.9497 0.635915 11.6569 0.343022C11.364 0.0501286 10.8891 0.0501289 10.5962 0.343022L5.99994 4.93928L1.40381 0.343148C1.11091 0.0502548 0.636039 0.0502548 0.343146 0.343148C0.0502527 0.636041 0.0502527 1.11091 0.343146 1.40381L4.93928 5.99994L0.343146 10.5961Z"/>
</mask>
<path fill-rule="evenodd" clip-rule="evenodd" d="M0.343146 10.5961C0.0502528 10.889 0.0502528 11.3638 0.343146 11.6567C0.636039 11.9496 1.11091 11.9496 1.40381 11.6567L5.99994 7.0606L10.5962 11.6569C10.8891 11.9497 11.364 11.9497 11.6569 11.6569C11.9497 11.364 11.9497 10.8891 11.6569 10.5962L7.0606 5.99994L11.6569 1.40368C11.9497 1.11079 11.9497 0.635915 11.6569 0.343022C11.364 0.0501286 10.8891 0.0501289 10.5962 0.343022L5.99994 4.93928L1.40381 0.343148C1.11091 0.0502548 0.636039 0.0502548 0.343146 0.343148C0.0502527 0.636041 0.0502527 1.11091 0.343146 1.40381L4.93928 5.99994L0.343146 10.5961Z" fill="#ffffff"/>
<path d="M0.343146 11.6567L1.05025 10.9496L1.05025 10.9496L0.343146 11.6567ZM0.343146 10.5961L1.05025 11.3032L1.05025 11.3032L0.343146 10.5961ZM1.40381 11.6567L0.696699 10.9496H0.696699L1.40381 11.6567ZM5.99994 7.0606L6.70704 6.35349L5.99994 5.64639L5.29283 6.35349L5.99994 7.0606ZM11.6569 11.6569L12.364 12.364L12.364 12.364L11.6569 11.6569ZM7.0606 5.99994L6.35349 5.29283L5.64638 5.99994L6.35349 6.70705L7.0606 5.99994ZM11.6569 1.40368L12.364 2.11079L12.364 2.11079L11.6569 1.40368ZM11.6569 0.343022L12.364 -0.364084L12.364 -0.364085L11.6569 0.343022ZM10.5962 0.343022L11.3033 1.05013L11.3033 1.05013L10.5962 0.343022ZM5.99994 4.93928L5.29283 5.64639L5.99994 6.35349L6.70704 5.64639L5.99994 4.93928ZM1.40381 0.343148L2.11091 -0.363959L2.11091 -0.363959L1.40381 0.343148ZM0.343146 0.343148L-0.363961 -0.363959L-0.363961 -0.363959L0.343146 0.343148ZM0.343146 1.40381L-0.363961 2.11091L-0.363961 2.11092L0.343146 1.40381ZM4.93928 5.99994L5.64638 6.70705L6.35349 5.99994L5.64638 5.29283L4.93928 5.99994ZM1.05025 10.9496C1.14788 11.0473 1.14788 11.2055 1.05025 11.3032L-0.36396 9.88896C-1.04738 10.5724 -1.04738 11.6804 -0.36396 12.3638L1.05025 10.9496ZM0.696699 10.9496C0.79433 10.852 0.952622 10.852 1.05025 10.9496L-0.363961 12.3638C0.319457 13.0473 1.4275 13.0473 2.11091 12.3638L0.696699 10.9496ZM5.29283 6.35349L0.696699 10.9496L2.11091 12.3638L6.70704 7.76771L5.29283 6.35349ZM11.3033 10.9497L6.70704 6.35349L5.29283 7.76771L9.88909 12.364L11.3033 10.9497ZM10.9497 10.9497C11.0474 10.8521 11.2057 10.8521 11.3033 10.9497L9.88909 12.364C10.5725 13.0474 11.6805 13.0474 12.364 12.364L10.9497 10.9497ZM10.9497 11.3033C10.8521 11.2057 10.8521 11.0474 10.9497 10.9498L12.364 12.364C13.0474 11.6805 13.0474 10.5725 12.364 9.88909L10.9497 11.3033ZM6.35349 6.70705L10.9497 11.3033L12.364 9.88909L7.7677 5.29283L6.35349 6.70705ZM10.9497 0.696575L6.35349 5.29283L7.7677 6.70705L12.364 2.11079L10.9497 0.696575ZM10.9497 1.05013C10.8521 0.952497 10.8521 0.794207 10.9497 0.696576L12.364 2.11079C13.0474 1.42737 13.0474 0.319333 12.364 -0.364084L10.9497 1.05013ZM11.3033 1.05013C11.2057 1.14776 11.0474 1.14776 10.9497 1.05013L12.364 -0.364085C11.6805 -1.0475 10.5725 -1.0475 9.88909 -0.364084L11.3033 1.05013ZM6.70704 5.64639L11.3033 1.05013L9.88909 -0.364085L5.29283 4.23217L6.70704 5.64639ZM0.696699 1.05025L5.29283 5.64639L6.70704 4.23217L2.11091 -0.363959L0.696699 1.05025ZM1.05025 1.05025C0.952622 1.14789 0.79433 1.14789 0.696699 1.05025L2.11091 -0.363959C1.4275 -1.04738 0.319457 -1.04738 -0.363961 -0.363959L1.05025 1.05025ZM1.05025 0.696702C1.14788 0.794332 1.14788 0.952624 1.05025 1.05025L-0.363961 -0.363959C-1.04738 0.319459 -1.04738 1.4275 -0.363961 2.11091L1.05025 0.696702ZM5.64638 5.29283L1.05025 0.696701L-0.363961 2.11092L4.23217 6.70705L5.64638 5.29283ZM1.05025 11.3032L5.64638 6.70705L4.23217 5.29283L-0.363961 9.88896L1.05025 11.3032Z" fill="#ffffff" mask="url(#path-1-inside-1_6_529)"/>
</svg>
