<svg width="22" height="29" viewBox="0 0 22 29" fill="none" xmlns="http://www.w3.org/2000/svg">
<path fill-rule="evenodd" clip-rule="evenodd" d="M5.01821 6.9386C5.01821 4.45331 7.03293 2.43859 9.51821 2.43859H12.4648C14.9501 2.43859 16.9648 4.45331 16.9648 6.9386V13.0356V13.2155L17.0793 13.3541L20.1594 17.0826V17.5798H10.9915H2.15988V16.9053L4.91386 13.3414L5.01821 13.2063V13.0356V6.9386ZM9.51821 1.43859C6.48065 1.43859 4.01821 3.90103 4.01821 6.9386V12.865L1.26424 16.4289L1.15988 16.564V16.7347V18.0798V18.5798H1.65988H10.4915V18.5842V18.5952V18.6064V18.6177V18.6291V18.6405V18.6521V18.6638V18.6757V18.6876V18.6996V18.7117V18.7239V18.7363V18.7487V18.7613V18.7739V18.7867V18.7995V18.8125V18.8256V18.8387V18.852V18.8654V18.8788V18.8924V18.9061V18.9198V18.9337V18.9477V18.9617V18.9759V18.9901V19.0045V19.019V19.0335V19.0482V19.0629V19.0778V19.0927V19.1077V19.1229V19.1381V19.1534V19.1688V19.1843V19.1999V19.2156V19.2314V19.2473V19.2632V19.2793V19.2954V19.3117V19.328V19.3444V19.3609V19.3775V19.3942V19.411V19.4278V19.4448V19.4618V19.479V19.4962V19.5135V19.5308V19.5483V19.5659V19.5835V19.6012V19.619V19.6369V19.6549V19.6729V19.6911V19.7093V19.7276V19.746V19.7645V19.783V19.8016V19.8203V19.8391V19.858V19.8769V19.896V19.9151V19.9342V19.9535V19.9728V19.9923V20.0117V20.0313V20.0509V20.0707V20.0904V20.1103V20.1303V20.1503V20.1704V20.1905V20.2108V20.2311V20.2514V20.2719V20.2924V20.313V20.3337V20.3544V20.3752V20.3961V20.417V20.438V20.4591V20.4803V20.5015V20.5228V20.5441V20.5655V20.587V20.6086V20.6302V20.6519V20.6736V20.6954V20.7173V20.7392V20.7612V20.7833V20.8054V20.8276V20.8499V20.8722V20.8946V20.917V20.9395V20.9621V20.9847V21.0074V21.0301V21.0529V21.0758V21.0987V21.1216V21.1447V21.1678V21.1909V21.2141V21.2374V21.2607V21.284V21.3075V21.3309V21.3545V21.378V21.4017V21.4254V21.4491V21.4729V21.4968V21.5207V21.5446V21.5686V21.5927V21.6168V21.6409V21.6651V21.6894V21.7137V21.738V21.7624V21.7869V21.8114V21.8359V21.8605V21.8851V21.9098V21.9345V21.9593V21.9841V22.009V22.0339V22.0588V22.0838V22.1088V22.1339V22.159V22.1842V22.2094V22.2346V22.2599V22.2852V22.3106V22.336V22.3615V22.3869V22.4125V22.438V22.4636V22.4893V22.5149V22.5406V22.5664V22.5922V22.618V22.6438V22.6697V22.6957V22.7216V22.7476V22.7736V22.7997V22.8258V22.8519V22.8781V22.9043V22.9305V22.9568V22.983V23.0093V23.0357V23.0621V23.0885V23.1149V23.1414V23.1679V23.1944V23.2209V23.2475V23.2741V23.3007V23.3274V23.3541V23.3808V23.4075V23.4342V23.461V23.4878V23.5147V23.5415V23.5684V23.5953V23.6222V23.6491V23.6761V23.7031V23.7301V23.7571V23.7842V23.8112V23.8383V23.8654V23.8925V23.9197V23.9468V23.974V24.0012V24.0284V24.0556V24.0829V24.1101V24.1374V24.1647V24.192V24.2193V24.2466V24.274V24.3013V24.3287V24.3561V24.3835V24.4109V24.4383V24.4657V24.4932V24.5206V24.5481V24.5756V24.603V24.6305V24.658V24.6855V24.713V24.7406V24.7681V24.7956V24.8232V24.8507V24.8783V24.9058V24.9334V24.961V24.9885V25.0161V25.0437V25.0713V25.0989V25.1264V25.154V25.1816V25.2092V25.2368V25.2644V25.292V25.3196V25.3472V25.3748V25.4024V25.43V25.4576V25.4852V25.5128V25.5403V25.5679V25.5955V25.6231V25.6506V25.6782V25.7058V25.7333V25.7609V25.7884V25.8159V25.8435V25.871V25.8985V25.926V25.9535V25.981V25.983L11 27L11.4915 26.017V26.0085V25.981V25.9535V25.926V25.8985V25.871V25.8435V25.8159V25.7884V25.7609V25.7333V25.7058V25.6782V25.6506V25.6231V25.5955V25.5679V25.5403V25.5128V25.4852V25.4576V25.43V25.4024V25.3748V25.3472V25.3196V25.292V25.2644V25.2368V25.2092V25.1816V25.154V25.1264V25.0989V25.0713V25.0437V25.0161V24.9885V24.961V24.9334V24.9058V24.8783V24.8507V24.8232V24.7956V24.7681V24.7406V24.713V24.6855V24.658V24.6305V24.603V24.5756V24.5481V24.5206V24.4932V24.4657V24.4383V24.4109V24.3835V24.3561V24.3287V24.3013V24.274V24.2466V24.2193V24.192V24.1647V24.1374V24.1101V24.0829V24.0556V24.0284V24.0012V23.974V23.9468V23.9197V23.8925V23.8654V23.8383V23.8112V23.7842V23.7571V23.7301V23.7031V23.6761V23.6491V23.6222V23.5953V23.5684V23.5415V23.5147V23.4878V23.461V23.4342V23.4075V23.3808V23.3541V23.3274V23.3007V23.2741V23.2475V23.2209V23.1944V23.1679V23.1414V23.1149V23.0885V23.0621V23.0357V23.0093V22.983V22.9568V22.9305V22.9043V22.8781V22.8519V22.8258V22.7997V22.7736V22.7476V22.7216V22.6957V22.6697V22.6438V22.618V22.5922V22.5664V22.5406V22.5149V22.4893V22.4636V22.438V22.4125V22.3869V22.3615V22.336V22.3106V22.2852V22.2599V22.2346V22.2094V22.1842V22.159V22.1339V22.1088V22.0838V22.0588V22.0339V22.009V21.9841V21.9593V21.9345V21.9098V21.8851V21.8605V21.8359V21.8114V21.7869V21.7624V21.738V21.7137V21.6894V21.6651V21.6409V21.6168V21.5927V21.5686V21.5446V21.5207V21.4968V21.4729V21.4491V21.4254V21.4017V21.378V21.3545V21.3309V21.3075V21.284V21.2607V21.2374V21.2141V21.1909V21.1678V21.1447V21.1216V21.0987V21.0758V21.0529V21.0301V21.0074V20.9847V20.9621V20.9395V20.917V20.8946V20.8722V20.8499V20.8276V20.8054V20.7833V20.7612V20.7392V20.7173V20.6954V20.6736V20.6519V20.6302V20.6086V20.587V20.5655V20.5441V20.5228V20.5015V20.4803V20.4591V20.438V20.417V20.3961V20.3752V20.3544V20.3337V20.313V20.2924V20.2719V20.2514V20.2311V20.2108V20.1905V20.1704V20.1503V20.1303V20.1103V20.0904V20.0707V20.0509V20.0313V20.0117V19.9923V19.9728V19.9535V19.9342V19.9151V19.896V19.8769V19.858V19.8391V19.8203V19.8016V19.783V19.7645V19.746V19.7276V19.7093V19.6911V19.6729V19.6549V19.6369V19.619V19.6012V19.5835V19.5659V19.5483V19.5308V19.5135V19.4962V19.479V19.4618V19.4448V19.4278V19.411V19.3942V19.3775V19.3609V19.3444V19.328V19.3117V19.2954V19.2793V19.2632V19.2473V19.2314V19.2156V19.1999V19.1843V19.1688V19.1534V19.1381V19.1229V19.1077V19.0927V19.0778V19.0629V19.0482V19.0335V19.019V19.0045V18.9901V18.9759V18.9617V18.9477V18.9337V18.9198V18.9061V18.8924V18.8788V18.8654V18.852V18.8387V18.8256V18.8125V18.7995V18.7867V18.7739V18.7613V18.7487V18.7363V18.7239V18.7117V18.6996V18.6876V18.6757V18.6638V18.6521V18.6405V18.6291V18.6177V18.6064V18.5952V18.5842V18.5798H20.6594H21.1594V18.0798V16.9028V16.723L21.0449 16.5844L17.9648 12.8558V6.9386C17.9648 3.90103 15.5023 1.43859 12.4648 1.43859H9.51821Z" fill="black"/>
<path d="M16.9648 13.2155H16.4648V13.3953L16.5793 13.5339L16.9648 13.2155ZM17.0793 13.3541L17.4648 13.0356L17.4648 13.0356L17.0793 13.3541ZM20.1594 17.0826H20.6594V16.9028L20.5449 16.7642L20.1594 17.0826ZM20.1594 17.5798V18.0798H20.6594V17.5798H20.1594ZM2.15988 17.5798H1.65988V18.0798H2.15988V17.5798ZM2.15988 16.9053L1.76424 16.5996L1.65988 16.7347V16.9053H2.15988ZM4.91386 13.3414L5.3095 13.6471L5.3095 13.6471L4.91386 13.3414ZM5.01821 13.2063L5.41386 13.512L5.51821 13.377V13.2063H5.01821ZM4.01821 12.865L4.41386 13.1707L4.51821 13.0356V12.865H4.01821ZM1.26424 16.4289L0.868597 16.1232L0.868596 16.1232L1.26424 16.4289ZM1.15988 16.564L0.764238 16.2583L0.659882 16.3933V16.564H1.15988ZM1.15988 18.5798H0.659882V19.0798H1.15988V18.5798ZM10.4915 18.5798H10.9915V18.0798H10.4915V18.5798ZM10.4915 25.983H9.99149V26.101L10.0443 26.2066L10.4915 25.983ZM11 27L10.5528 27.2236L11 28.118L11.4472 27.2236L11 27ZM11.4915 26.017L11.9387 26.2406L11.9915 26.1351V26.017H11.4915ZM11.4915 18.5798V18.0798H10.9915V18.5798H11.4915ZM21.1594 18.5798V19.0798H21.6594V18.5798H21.1594ZM21.1594 16.723H21.6594V16.5432L21.5449 16.4045L21.1594 16.723ZM21.0449 16.5844L20.6594 16.9028L20.6594 16.9028L21.0449 16.5844ZM17.9648 12.8558H17.4648V13.0356L17.5793 13.1743L17.9648 12.8558ZM9.51821 1.93859C6.75679 1.93859 4.51821 4.17717 4.51821 6.9386H5.51821C5.51821 4.72946 7.30907 2.93859 9.51821 2.93859V1.93859ZM12.4648 1.93859H9.51821V2.93859H12.4648V1.93859ZM17.4648 6.9386C17.4648 4.17717 15.2262 1.93859 12.4648 1.93859V2.93859C14.6739 2.93859 16.4648 4.72946 16.4648 6.9386H17.4648ZM17.4648 13.0356V6.9386H16.4648V13.0356H17.4648ZM17.4648 13.2155V13.0356H16.4648V13.2155H17.4648ZM17.4648 13.0356L17.3503 12.897L16.5793 13.5339L16.6938 13.6725L17.4648 13.0356ZM20.5449 16.7642L17.4648 13.0356L16.6938 13.6725L19.7739 17.4011L20.5449 16.7642ZM20.6594 17.5798V17.0826H19.6594V17.5798H20.6594ZM10.9915 18.0798H20.1594V17.0798H10.9915V18.0798ZM2.15988 18.0798H10.9915V17.0798H2.15988V18.0798ZM1.65988 16.9053V17.5798H2.65988V16.9053H1.65988ZM4.51821 13.0356L1.76424 16.5996L2.55552 17.2111L5.3095 13.6471L4.51821 13.0356ZM4.62257 12.9006L4.51821 13.0356L5.3095 13.6471L5.41386 13.512L4.62257 12.9006ZM4.51821 13.0356V13.2063H5.51821V13.0356H4.51821ZM4.51821 6.9386V13.0356H5.51821V6.9386H4.51821ZM4.51821 6.9386C4.51821 4.17717 6.75679 1.93859 9.51821 1.93859V0.938595C6.2045 0.938595 3.51821 3.62489 3.51821 6.9386H4.51821ZM4.51821 12.865V6.9386H3.51821V12.865H4.51821ZM1.65988 16.7347L4.41386 13.1707L3.62257 12.5592L0.868597 16.1232L1.65988 16.7347ZM1.55553 16.8697L1.65988 16.7347L0.868596 16.1232L0.764238 16.2583L1.55553 16.8697ZM1.65988 16.7347V16.564H0.659882V16.7347H1.65988ZM1.65988 18.0798V16.7347H0.659882V18.0798H1.65988ZM1.65988 18.5798V18.0798H0.659882V18.5798H1.65988ZM1.65988 18.0798H1.15988V19.0798H1.65988V18.0798ZM10.4915 18.0798H1.65988V19.0798H10.4915V18.0798ZM10.9915 18.5842V18.5798H9.99149V18.5842H10.9915ZM10.9915 18.5952V18.5842H9.99149V18.5952H10.9915ZM10.9915 18.6064V18.5952H9.99149V18.6064H10.9915ZM10.9915 18.6177V18.6064H9.99149V18.6177H10.9915ZM10.9915 18.6291V18.6177H9.99149V18.6291H10.9915ZM10.9915 18.6405V18.6291H9.99149V18.6405H10.9915ZM10.9915 18.6521V18.6405H9.99149V18.6521H10.9915ZM10.9915 18.6638V18.6521H9.99149V18.6638H10.9915ZM10.9915 18.6757V18.6638H9.99149V18.6757H10.9915ZM10.9915 18.6876V18.6757H9.99149V18.6876H10.9915ZM10.9915 18.6996V18.6876H9.99149V18.6996H10.9915ZM10.9915 18.7117V18.6996H9.99149V18.7117H10.9915ZM10.9915 18.7239V18.7117H9.99149V18.7239H10.9915ZM10.9915 18.7363V18.7239H9.99149V18.7363H10.9915ZM10.9915 18.7487V18.7363H9.99149V18.7487H10.9915ZM10.9915 18.7613V18.7487H9.99149V18.7613H10.9915ZM10.9915 18.7739V18.7613H9.99149V18.7739H10.9915ZM10.9915 18.7867V18.7739H9.99149V18.7867H10.9915ZM10.9915 18.7995V18.7867H9.99149V18.7995H10.9915ZM10.9915 18.8125V18.7995H9.99149V18.8125H10.9915ZM10.9915 18.8256V18.8125H9.99149V18.8256H10.9915ZM10.9915 18.8387V18.8256H9.99149V18.8387H10.9915ZM10.9915 18.852V18.8387H9.99149V18.852H10.9915ZM10.9915 18.8654V18.852H9.99149V18.8654H10.9915ZM10.9915 18.8788V18.8654H9.99149V18.8788H10.9915ZM10.9915 18.8924V18.8788H9.99149V18.8924H10.9915ZM10.9915 18.9061V18.8924H9.99149V18.9061H10.9915ZM10.9915 18.9198V18.9061H9.99149V18.9198H10.9915ZM10.9915 18.9337V18.9198H9.99149V18.9337H10.9915ZM10.9915 18.9477V18.9337H9.99149V18.9477H10.9915ZM10.9915 18.9617V18.9477H9.99149V18.9617H10.9915ZM10.9915 18.9759V18.9617H9.99149V18.9759H10.9915ZM10.9915 18.9901V18.9759H9.99149V18.9901H10.9915ZM10.9915 19.0045V18.9901H9.99149V19.0045H10.9915ZM10.9915 19.019V19.0045H9.99149V19.019H10.9915ZM10.9915 19.0335V19.019H9.99149V19.0335H10.9915ZM10.9915 19.0482V19.0335H9.99149V19.0482H10.9915ZM10.9915 19.0629V19.0482H9.99149V19.0629H10.9915ZM10.9915 19.0778V19.0629H9.99149V19.0778H10.9915ZM10.9915 19.0927V19.0778H9.99149V19.0927H10.9915ZM10.9915 19.1077V19.0927H9.99149V19.1077H10.9915ZM10.9915 19.1229V19.1077H9.99149V19.1229H10.9915ZM10.9915 19.1381V19.1229H9.99149V19.1381H10.9915ZM10.9915 19.1534V19.1381H9.99149V19.1534H10.9915ZM10.9915 19.1688V19.1534H9.99149V19.1688H10.9915ZM10.9915 19.1843V19.1688H9.99149V19.1843H10.9915ZM10.9915 19.1999V19.1843H9.99149V19.1999H10.9915ZM10.9915 19.2156V19.1999H9.99149V19.2156H10.9915ZM10.9915 19.2314V19.2156H9.99149V19.2314H10.9915ZM10.9915 19.2473V19.2314H9.99149V19.2473H10.9915ZM10.9915 19.2632V19.2473H9.99149V19.2632H10.9915ZM10.9915 19.2793V19.2632H9.99149V19.2793H10.9915ZM10.9915 19.2954V19.2793H9.99149V19.2954H10.9915ZM10.9915 19.3117V19.2954H9.99149V19.3117H10.9915ZM10.9915 19.328V19.3117H9.99149V19.328H10.9915ZM10.9915 19.3444V19.328H9.99149V19.3444H10.9915ZM10.9915 19.3609V19.3444H9.99149V19.3609H10.9915ZM10.9915 19.3775V19.3609H9.99149V19.3775H10.9915ZM10.9915 19.3942V19.3775H9.99149V19.3942H10.9915ZM10.9915 19.411V19.3942H9.99149V19.411H10.9915ZM10.9915 19.4278V19.411H9.99149V19.4278H10.9915ZM10.9915 19.4448V19.4278H9.99149V19.4448H10.9915ZM10.9915 19.4618V19.4448H9.99149V19.4618H10.9915ZM10.9915 19.479V19.4618H9.99149V19.479H10.9915ZM10.9915 19.4962V19.479H9.99149V19.4962H10.9915ZM10.9915 19.5135V19.4962H9.99149V19.5135H10.9915ZM10.9915 19.5308V19.5135H9.99149V19.5308H10.9915ZM10.9915 19.5483V19.5308H9.99149V19.5483H10.9915ZM10.9915 19.5659V19.5483H9.99149V19.5659H10.9915ZM10.9915 19.5835V19.5659H9.99149V19.5835H10.9915ZM10.9915 19.6012V19.5835H9.99149V19.6012H10.9915ZM10.9915 19.619V19.6012H9.99149V19.619H10.9915ZM10.9915 19.6369V19.619H9.99149V19.6369H10.9915ZM10.9915 19.6549V19.6369H9.99149V19.6549H10.9915ZM10.9915 19.6729V19.6549H9.99149V19.6729H10.9915ZM10.9915 19.6911V19.6729H9.99149V19.6911H10.9915ZM10.9915 19.7093V19.6911H9.99149V19.7093H10.9915ZM10.9915 19.7276V19.7093H9.99149V19.7276H10.9915ZM10.9915 19.746V19.7276H9.99149V19.746H10.9915ZM10.9915 19.7645V19.746H9.99149V19.7645H10.9915ZM10.9915 19.783V19.7645H9.99149V19.783H10.9915ZM10.9915 19.8016V19.783H9.99149V19.8016H10.9915ZM10.9915 19.8203V19.8016H9.99149V19.8203H10.9915ZM10.9915 19.8391V19.8203H9.99149V19.8391H10.9915ZM10.9915 19.858V19.8391H9.99149V19.858H10.9915ZM10.9915 19.8769V19.858H9.99149V19.8769H10.9915ZM10.9915 19.896V19.8769H9.99149V19.896H10.9915ZM10.9915 19.9151V19.896H9.99149V19.9151H10.9915ZM10.9915 19.9342V19.9151H9.99149V19.9342H10.9915ZM10.9915 19.9535V19.9342H9.99149V19.9535H10.9915ZM10.9915 19.9728V19.9535H9.99149V19.9728H10.9915ZM10.9915 19.9923V19.9728H9.99149V19.9923H10.9915ZM10.9915 20.0117V19.9923H9.99149V20.0117H10.9915ZM10.9915 20.0313V20.0117H9.99149V20.0313H10.9915ZM10.9915 20.0509V20.0313H9.99149V20.0509H10.9915ZM10.9915 20.0707V20.0509H9.99149V20.0707H10.9915ZM10.9915 20.0904V20.0707H9.99149V20.0904H10.9915ZM10.9915 20.1103V20.0904H9.99149V20.1103H10.9915ZM10.9915 20.1303V20.1103H9.99149V20.1303H10.9915ZM10.9915 20.1503V20.1303H9.99149V20.1503H10.9915ZM10.9915 20.1704V20.1503H9.99149V20.1704H10.9915ZM10.9915 20.1905V20.1704H9.99149V20.1905H10.9915ZM10.9915 20.2108V20.1905H9.99149V20.2108H10.9915ZM10.9915 20.2311V20.2108H9.99149V20.2311H10.9915ZM10.9915 20.2514V20.2311H9.99149V20.2514H10.9915ZM10.9915 20.2719V20.2514H9.99149V20.2719H10.9915ZM10.9915 20.2924V20.2719H9.99149V20.2924H10.9915ZM10.9915 20.313V20.2924H9.99149V20.313H10.9915ZM10.9915 20.3337V20.313H9.99149V20.3337H10.9915ZM10.9915 20.3544V20.3337H9.99149V20.3544H10.9915ZM10.9915 20.3752V20.3544H9.99149V20.3752H10.9915ZM10.9915 20.3961V20.3752H9.99149V20.3961H10.9915ZM10.9915 20.417V20.3961H9.99149V20.417H10.9915ZM10.9915 20.438V20.417H9.99149V20.438H10.9915ZM10.9915 20.4591V20.438H9.99149V20.4591H10.9915ZM10.9915 20.4803V20.4591H9.99149V20.4803H10.9915ZM10.9915 20.5015V20.4803H9.99149V20.5015H10.9915ZM10.9915 20.5228V20.5015H9.99149V20.5228H10.9915ZM10.9915 20.5441V20.5228H9.99149V20.5441H10.9915ZM10.9915 20.5655V20.5441H9.99149V20.5655H10.9915ZM10.9915 20.587V20.5655H9.99149V20.587H10.9915ZM10.9915 20.6086V20.587H9.99149V20.6086H10.9915ZM10.9915 20.6302V20.6086H9.99149V20.6302H10.9915ZM10.9915 20.6519V20.6302H9.99149V20.6519H10.9915ZM10.9915 20.6736V20.6519H9.99149V20.6736H10.9915ZM10.9915 20.6954V20.6736H9.99149V20.6954H10.9915ZM10.9915 20.7173V20.6954H9.99149V20.7173H10.9915ZM10.9915 20.7392V20.7173H9.99149V20.7392H10.9915ZM10.9915 20.7612V20.7392H9.99149V20.7612H10.9915ZM10.9915 20.7833V20.7612H9.99149V20.7833H10.9915ZM10.9915 20.8054V20.7833H9.99149V20.8054H10.9915ZM10.9915 20.8276V20.8054H9.99149V20.8276H10.9915ZM10.9915 20.8499V20.8276H9.99149V20.8499H10.9915ZM10.9915 20.8722V20.8499H9.99149V20.8722H10.9915ZM10.9915 20.8946V20.8722H9.99149V20.8946H10.9915ZM10.9915 20.917V20.8946H9.99149V20.917H10.9915ZM10.9915 20.9395V20.917H9.99149V20.9395H10.9915ZM10.9915 20.9621V20.9395H9.99149V20.9621H10.9915ZM10.9915 20.9847V20.9621H9.99149V20.9847H10.9915ZM10.9915 21.0074V20.9847H9.99149V21.0074H10.9915ZM10.9915 21.0301V21.0074H9.99149V21.0301H10.9915ZM10.9915 21.0529V21.0301H9.99149V21.0529H10.9915ZM10.9915 21.0758V21.0529H9.99149V21.0758H10.9915ZM10.9915 21.0987V21.0758H9.99149V21.0987H10.9915ZM10.9915 21.1216V21.0987H9.99149V21.1216H10.9915ZM10.9915 21.1447V21.1216H9.99149V21.1447H10.9915ZM10.9915 21.1678V21.1447H9.99149V21.1678H10.9915ZM10.9915 21.1909V21.1678H9.99149V21.1909H10.9915ZM10.9915 21.2141V21.1909H9.99149V21.2141H10.9915ZM10.9915 21.2374V21.2141H9.99149V21.2374H10.9915ZM10.9915 21.2607V21.2374H9.99149V21.2607H10.9915ZM10.9915 21.284V21.2607H9.99149V21.284H10.9915ZM10.9915 21.3075V21.284H9.99149V21.3075H10.9915ZM10.9915 21.3309V21.3075H9.99149V21.3309H10.9915ZM10.9915 21.3545V21.3309H9.99149V21.3545H10.9915ZM10.9915 21.378V21.3545H9.99149V21.378H10.9915ZM10.9915 21.4017V21.378H9.99149V21.4017H10.9915ZM10.9915 21.4254V21.4017H9.99149V21.4254H10.9915ZM10.9915 21.4491V21.4254H9.99149V21.4491H10.9915ZM10.9915 21.4729V21.4491H9.99149V21.4729H10.9915ZM10.9915 21.4968V21.4729H9.99149V21.4968H10.9915ZM10.9915 21.5207V21.4968H9.99149V21.5207H10.9915ZM10.9915 21.5446V21.5207H9.99149V21.5446H10.9915ZM10.9915 21.5686V21.5446H9.99149V21.5686H10.9915ZM10.9915 21.5927V21.5686H9.99149V21.5927H10.9915ZM10.9915 21.6168V21.5927H9.99149V21.6168H10.9915ZM10.9915 21.6409V21.6168H9.99149V21.6409H10.9915ZM10.9915 21.6651V21.6409H9.99149V21.6651H10.9915ZM10.9915 21.6894V21.6651H9.99149V21.6894H10.9915ZM10.9915 21.7137V21.6894H9.99149V21.7137H10.9915ZM10.9915 21.738V21.7137H9.99149V21.738H10.9915ZM10.9915 21.7624V21.738H9.99149V21.7624H10.9915ZM10.9915 21.7869V21.7624H9.99149V21.7869H10.9915ZM10.9915 21.8114V21.7869H9.99149V21.8114H10.9915ZM10.9915 21.8359V21.8114H9.99149V21.8359H10.9915ZM10.9915 21.8605V21.8359H9.99149V21.8605H10.9915ZM10.9915 21.8851V21.8605H9.99149V21.8851H10.9915ZM10.9915 21.9098V21.8851H9.99149V21.9098H10.9915ZM10.9915 21.9345V21.9098H9.99149V21.9345H10.9915ZM10.9915 21.9593V21.9345H9.99149V21.9593H10.9915ZM10.9915 21.9841V21.9593H9.99149V21.9841H10.9915ZM10.9915 22.009V21.9841H9.99149V22.009H10.9915ZM10.9915 22.0339V22.009H9.99149V22.0339H10.9915ZM10.9915 22.0588V22.0339H9.99149V22.0588H10.9915ZM10.9915 22.0838V22.0588H9.99149V22.0838H10.9915ZM10.9915 22.1088V22.0838H9.99149V22.1088H10.9915ZM10.9915 22.1339V22.1088H9.99149V22.1339H10.9915ZM10.9915 22.159V22.1339H9.99149V22.159H10.9915ZM10.9915 22.1842V22.159H9.99149V22.1842H10.9915ZM10.9915 22.2094V22.1842H9.99149V22.2094H10.9915ZM10.9915 22.2346V22.2094H9.99149V22.2346H10.9915ZM10.9915 22.2599V22.2346H9.99149V22.2599H10.9915ZM10.9915 22.2852V22.2599H9.99149V22.2852H10.9915ZM10.9915 22.3106V22.2852H9.99149V22.3106H10.9915ZM10.9915 22.336V22.3106H9.99149V22.336H10.9915ZM10.9915 22.3615V22.336H9.99149V22.3615H10.9915ZM10.9915 22.3869V22.3615H9.99149V22.3869H10.9915ZM10.9915 22.4125V22.3869H9.99149V22.4125H10.9915ZM10.9915 22.438V22.4125H9.99149V22.438H10.9915ZM10.9915 22.4636V22.438H9.99149V22.4636H10.9915ZM10.9915 22.4893V22.4636H9.99149V22.4893H10.9915ZM10.9915 22.5149V22.4893H9.99149V22.5149H10.9915ZM10.9915 22.5406V22.5149H9.99149V22.5406H10.9915ZM10.9915 22.5664V22.5406H9.99149V22.5664H10.9915ZM10.9915 22.5922V22.5664H9.99149V22.5922H10.9915ZM10.9915 22.618V22.5922H9.99149V22.618H10.9915ZM10.9915 22.6438V22.618H9.99149V22.6438H10.9915ZM10.9915 22.6697V22.6438H9.99149V22.6697H10.9915ZM10.9915 22.6957V22.6697H9.99149V22.6957H10.9915ZM10.9915 22.7216V22.6957H9.99149V22.7216H10.9915ZM10.9915 22.7476V22.7216H9.99149V22.7476H10.9915ZM10.9915 22.7736V22.7476H9.99149V22.7736H10.9915ZM10.9915 22.7997V22.7736H9.99149V22.7997H10.9915ZM10.9915 22.8258V22.7997H9.99149V22.8258H10.9915ZM10.9915 22.8519V22.8258H9.99149V22.8519H10.9915ZM10.9915 22.8781V22.8519H9.99149V22.8781H10.9915ZM10.9915 22.9043V22.8781H9.99149V22.9043H10.9915ZM10.9915 22.9305V22.9043H9.99149V22.9305H10.9915ZM10.9915 22.9568V22.9305H9.99149V22.9568H10.9915ZM10.9915 22.983V22.9568H9.99149V22.983H10.9915ZM10.9915 23.0093V22.983H9.99149V23.0093H10.9915ZM10.9915 23.0357V23.0093H9.99149V23.0357H10.9915ZM10.9915 23.0621V23.0357H9.99149V23.0621H10.9915ZM10.9915 23.0885V23.0621H9.99149V23.0885H10.9915ZM10.9915 23.1149V23.0885H9.99149V23.1149H10.9915ZM10.9915 23.1414V23.1149H9.99149V23.1414H10.9915ZM10.9915 23.1679V23.1414H9.99149V23.1679H10.9915ZM10.9915 23.1944V23.1679H9.99149V23.1944H10.9915ZM10.9915 23.2209V23.1944H9.99149V23.2209H10.9915ZM10.9915 23.2475V23.2209H9.99149V23.2475H10.9915ZM10.9915 23.2741V23.2475H9.99149V23.2741H10.9915ZM10.9915 23.3007V23.2741H9.99149V23.3007H10.9915ZM10.9915 23.3274V23.3007H9.99149V23.3274H10.9915ZM10.9915 23.3541V23.3274H9.99149V23.3541H10.9915ZM10.9915 23.3808V23.3541H9.99149V23.3808H10.9915ZM10.9915 23.4075V23.3808H9.99149V23.4075H10.9915ZM10.9915 23.4342V23.4075H9.99149V23.4342H10.9915ZM10.9915 23.461V23.4342H9.99149V23.461H10.9915ZM10.9915 23.4878V23.461H9.99149V23.4878H10.9915ZM10.9915 23.5147V23.4878H9.99149V23.5147H10.9915ZM10.9915 23.5415V23.5147H9.99149V23.5415H10.9915ZM10.9915 23.5684V23.5415H9.99149V23.5684H10.9915ZM10.9915 23.5953V23.5684H9.99149V23.5953H10.9915ZM10.9915 23.6222V23.5953H9.99149V23.6222H10.9915ZM10.9915 23.6491V23.6222H9.99149V23.6491H10.9915ZM10.9915 23.6761V23.6491H9.99149V23.6761H10.9915ZM10.9915 23.7031V23.6761H9.99149V23.7031H10.9915ZM10.9915 23.7301V23.7031H9.99149V23.7301H10.9915ZM10.9915 23.7571V23.7301H9.99149V23.7571H10.9915ZM10.9915 23.7842V23.7571H9.99149V23.7842H10.9915ZM10.9915 23.8112V23.7842H9.99149V23.8112H10.9915ZM10.9915 23.8383V23.8112H9.99149V23.8383H10.9915ZM10.9915 23.8654V23.8383H9.99149V23.8654H10.9915ZM10.9915 23.8925V23.8654H9.99149V23.8925H10.9915ZM10.9915 23.9197V23.8925H9.99149V23.9197H10.9915ZM10.9915 23.9468V23.9197H9.99149V23.9468H10.9915ZM10.9915 23.974V23.9468H9.99149V23.974H10.9915ZM10.9915 24.0012V23.974H9.99149V24.0012H10.9915ZM10.9915 24.0284V24.0012H9.99149V24.0284H10.9915ZM10.9915 24.0556V24.0284H9.99149V24.0556H10.9915ZM10.9915 24.0829V24.0556H9.99149V24.0829H10.9915ZM10.9915 24.1101V24.0829H9.99149V24.1101H10.9915ZM10.9915 24.1374V24.1101H9.99149V24.1374H10.9915ZM10.9915 24.1647V24.1374H9.99149V24.1647H10.9915ZM10.9915 24.192V24.1647H9.99149V24.192H10.9915ZM10.9915 24.2193V24.192H9.99149V24.2193H10.9915ZM10.9915 24.2466V24.2193H9.99149V24.2466H10.9915ZM10.9915 24.274V24.2466H9.99149V24.274H10.9915ZM10.9915 24.3013V24.274H9.99149V24.3013H10.9915ZM10.9915 24.3287V24.3013H9.99149V24.3287H10.9915ZM10.9915 24.3561V24.3287H9.99149V24.3561H10.9915ZM10.9915 24.3835V24.3561H9.99149V24.3835H10.9915ZM10.9915 24.4109V24.3835H9.99149V24.4109H10.9915ZM10.9915 24.4383V24.4109H9.99149V24.4383H10.9915ZM10.9915 24.4657V24.4383H9.99149V24.4657H10.9915ZM10.9915 24.4932V24.4657H9.99149V24.4932H10.9915ZM10.9915 24.5206V24.4932H9.99149V24.5206H10.9915ZM10.9915 24.5481V24.5206H9.99149V24.5481H10.9915ZM10.9915 24.5756V24.5481H9.99149V24.5756H10.9915ZM10.9915 24.603V24.5756H9.99149V24.603H10.9915ZM10.9915 24.6305V24.603H9.99149V24.6305H10.9915ZM10.9915 24.658V24.6305H9.99149V24.658H10.9915ZM10.9915 24.6855V24.658H9.99149V24.6855H10.9915ZM10.9915 24.713V24.6855H9.99149V24.713H10.9915ZM10.9915 24.7406V24.713H9.99149V24.7406H10.9915ZM10.9915 24.7681V24.7406H9.99149V24.7681H10.9915ZM10.9915 24.7956V24.7681H9.99149V24.7956H10.9915ZM10.9915 24.8232V24.7956H9.99149V24.8232H10.9915ZM10.9915 24.8507V24.8232H9.99149V24.8507H10.9915ZM10.9915 24.8783V24.8507H9.99149V24.8783H10.9915ZM10.9915 24.9058V24.8783H9.99149V24.9058H10.9915ZM10.9915 24.9334V24.9058H9.99149V24.9334H10.9915ZM10.9915 24.961V24.9334H9.99149V24.961H10.9915ZM10.9915 24.9885V24.961H9.99149V24.9885H10.9915ZM10.9915 25.0161V24.9885H9.99149V25.0161H10.9915ZM10.9915 25.0437V25.0161H9.99149V25.0437H10.9915ZM10.9915 25.0713V25.0437H9.99149V25.0713H10.9915ZM10.9915 25.0989V25.0713H9.99149V25.0989H10.9915ZM10.9915 25.1264V25.0989H9.99149V25.1264H10.9915ZM10.9915 25.154V25.1264H9.99149V25.154H10.9915ZM10.9915 25.1816V25.154H9.99149V25.1816H10.9915ZM10.9915 25.2092V25.1816H9.99149V25.2092H10.9915ZM10.9915 25.2368V25.2092H9.99149V25.2368H10.9915ZM10.9915 25.2644V25.2368H9.99149V25.2644H10.9915ZM10.9915 25.292V25.2644H9.99149V25.292H10.9915ZM10.9915 25.3196V25.292H9.99149V25.3196H10.9915ZM10.9915 25.3472V25.3196H9.99149V25.3472H10.9915ZM10.9915 25.3748V25.3472H9.99149V25.3748H10.9915ZM10.9915 25.4024V25.3748H9.99149V25.4024H10.9915ZM10.9915 25.43V25.4024H9.99149V25.43H10.9915ZM10.9915 25.4576V25.43H9.99149V25.4576H10.9915ZM10.9915 25.4852V25.4576H9.99149V25.4852H10.9915ZM10.9915 25.5128V25.4852H9.99149V25.5128H10.9915ZM10.9915 25.5403V25.5128H9.99149V25.5403H10.9915ZM10.9915 25.5679V25.5403H9.99149V25.5679H10.9915ZM10.9915 25.5955V25.5679H9.99149V25.5955H10.9915ZM10.9915 25.6231V25.5955H9.99149V25.6231H10.9915ZM10.9915 25.6506V25.6231H9.99149V25.6506H10.9915ZM10.9915 25.6782V25.6506H9.99149V25.6782H10.9915ZM10.9915 25.7058V25.6782H9.99149V25.7058H10.9915ZM10.9915 25.7333V25.7058H9.99149V25.7333H10.9915ZM10.9915 25.7609V25.7333H9.99149V25.7609H10.9915ZM10.9915 25.7884V25.7609H9.99149V25.7884H10.9915ZM10.9915 25.8159V25.7884H9.99149V25.8159H10.9915ZM10.9915 25.8435V25.8159H9.99149V25.8435H10.9915ZM10.9915 25.871V25.8435H9.99149V25.871H10.9915ZM10.9915 25.8985V25.871H9.99149V25.8985H10.9915ZM10.9915 25.926V25.8985H9.99149V25.926H10.9915ZM10.9915 25.9535V25.926H9.99149V25.9535H10.9915ZM10.9915 25.981V25.9535H9.99149V25.981H10.9915ZM10.9915 25.983V25.981H9.99149V25.983H10.9915ZM11.4472 26.7764L10.9387 25.7594L10.0443 26.2066L10.5528 27.2236L11.4472 26.7764ZM11.0443 25.7934L10.5528 26.7764L11.4472 27.2236L11.9387 26.2406L11.0443 25.7934ZM10.9915 26.0085V26.017H11.9915V26.0085H10.9915ZM10.9915 25.981V26.0085H11.9915V25.981H10.9915ZM10.9915 25.9535V25.981H11.9915V25.9535H10.9915ZM10.9915 25.926V25.9535H11.9915V25.926H10.9915ZM10.9915 25.8985V25.926H11.9915V25.8985H10.9915ZM10.9915 25.871V25.8985H11.9915V25.871H10.9915ZM10.9915 25.8435V25.871H11.9915V25.8435H10.9915ZM10.9915 25.8159V25.8435H11.9915V25.8159H10.9915ZM10.9915 25.7884V25.8159H11.9915V25.7884H10.9915ZM10.9915 25.7609V25.7884H11.9915V25.7609H10.9915ZM10.9915 25.7333V25.7609H11.9915V25.7333H10.9915ZM10.9915 25.7058V25.7333H11.9915V25.7058H10.9915ZM10.9915 25.6782V25.7058H11.9915V25.6782H10.9915ZM10.9915 25.6506V25.6782H11.9915V25.6506H10.9915ZM10.9915 25.6231V25.6506H11.9915V25.6231H10.9915ZM10.9915 25.5955V25.6231H11.9915V25.5955H10.9915ZM10.9915 25.5679V25.5955H11.9915V25.5679H10.9915ZM10.9915 25.5403V25.5679H11.9915V25.5403H10.9915ZM10.9915 25.5128V25.5403H11.9915V25.5128H10.9915ZM10.9915 25.4852V25.5128H11.9915V25.4852H10.9915ZM10.9915 25.4576V25.4852H11.9915V25.4576H10.9915ZM10.9915 25.43V25.4576H11.9915V25.43H10.9915ZM10.9915 25.4024V25.43H11.9915V25.4024H10.9915ZM10.9915 25.3748V25.4024H11.9915V25.3748H10.9915ZM10.9915 25.3472V25.3748H11.9915V25.3472H10.9915ZM10.9915 25.3196V25.3472H11.9915V25.3196H10.9915ZM10.9915 25.292V25.3196H11.9915V25.292H10.9915ZM10.9915 25.2644V25.292H11.9915V25.2644H10.9915ZM10.9915 25.2368V25.2644H11.9915V25.2368H10.9915ZM10.9915 25.2092V25.2368H11.9915V25.2092H10.9915ZM10.9915 25.1816V25.2092H11.9915V25.1816H10.9915ZM10.9915 25.154V25.1816H11.9915V25.154H10.9915ZM10.9915 25.1264V25.154H11.9915V25.1264H10.9915ZM10.9915 25.0989V25.1264H11.9915V25.0989H10.9915ZM10.9915 25.0713V25.0989H11.9915V25.0713H10.9915ZM10.9915 25.0437V25.0713H11.9915V25.0437H10.9915ZM10.9915 25.0161V25.0437H11.9915V25.0161H10.9915ZM10.9915 24.9885V25.0161H11.9915V24.9885H10.9915ZM10.9915 24.961V24.9885H11.9915V24.961H10.9915ZM10.9915 24.9334V24.961H11.9915V24.9334H10.9915ZM10.9915 24.9058V24.9334H11.9915V24.9058H10.9915ZM10.9915 24.8783V24.9058H11.9915V24.8783H10.9915ZM10.9915 24.8507V24.8783H11.9915V24.8507H10.9915ZM10.9915 24.8232V24.8507H11.9915V24.8232H10.9915ZM10.9915 24.7956V24.8232H11.9915V24.7956H10.9915ZM10.9915 24.7681V24.7956H11.9915V24.7681H10.9915ZM10.9915 24.7406V24.7681H11.9915V24.7406H10.9915ZM10.9915 24.713V24.7406H11.9915V24.713H10.9915ZM10.9915 24.6855V24.713H11.9915V24.6855H10.9915ZM10.9915 24.658V24.6855H11.9915V24.658H10.9915ZM10.9915 24.6305V24.658H11.9915V24.6305H10.9915ZM10.9915 24.603V24.6305H11.9915V24.603H10.9915ZM10.9915 24.5756V24.603H11.9915V24.5756H10.9915ZM10.9915 24.5481V24.5756H11.9915V24.5481H10.9915ZM10.9915 24.5206V24.5481H11.9915V24.5206H10.9915ZM10.9915 24.4932V24.5206H11.9915V24.4932H10.9915ZM10.9915 24.4657V24.4932H11.9915V24.4657H10.9915ZM10.9915 24.4383V24.4657H11.9915V24.4383H10.9915ZM10.9915 24.4109V24.4383H11.9915V24.4109H10.9915ZM10.9915 24.3835V24.4109H11.9915V24.3835H10.9915ZM10.9915 24.3561V24.3835H11.9915V24.3561H10.9915ZM10.9915 24.3287V24.3561H11.9915V24.3287H10.9915ZM10.9915 24.3013V24.3287H11.9915V24.3013H10.9915ZM10.9915 24.274V24.3013H11.9915V24.274H10.9915ZM10.9915 24.2466V24.274H11.9915V24.2466H10.9915ZM10.9915 24.2193V24.2466H11.9915V24.2193H10.9915ZM10.9915 24.192V24.2193H11.9915V24.192H10.9915ZM10.9915 24.1647V24.192H11.9915V24.1647H10.9915ZM10.9915 24.1374V24.1647H11.9915V24.1374H10.9915ZM10.9915 24.1101V24.1374H11.9915V24.1101H10.9915ZM10.9915 24.0829V24.1101H11.9915V24.0829H10.9915ZM10.9915 24.0556V24.0829H11.9915V24.0556H10.9915ZM10.9915 24.0284V24.0556H11.9915V24.0284H10.9915ZM10.9915 24.0012V24.0284H11.9915V24.0012H10.9915ZM10.9915 23.974V24.0012H11.9915V23.974H10.9915ZM10.9915 23.9468V23.974H11.9915V23.9468H10.9915ZM10.9915 23.9197V23.9468H11.9915V23.9197H10.9915ZM10.9915 23.8925V23.9197H11.9915V23.8925H10.9915ZM10.9915 23.8654V23.8925H11.9915V23.8654H10.9915ZM10.9915 23.8383V23.8654H11.9915V23.8383H10.9915ZM10.9915 23.8112V23.8383H11.9915V23.8112H10.9915ZM10.9915 23.7842V23.8112H11.9915V23.7842H10.9915ZM10.9915 23.7571V23.7842H11.9915V23.7571H10.9915ZM10.9915 23.7301V23.7571H11.9915V23.7301H10.9915ZM10.9915 23.7031V23.7301H11.9915V23.7031H10.9915ZM10.9915 23.6761V23.7031H11.9915V23.6761H10.9915ZM10.9915 23.6491V23.6761H11.9915V23.6491H10.9915ZM10.9915 23.6222V23.6491H11.9915V23.6222H10.9915ZM10.9915 23.5953V23.6222H11.9915V23.5953H10.9915ZM10.9915 23.5684V23.5953H11.9915V23.5684H10.9915ZM10.9915 23.5415V23.5684H11.9915V23.5415H10.9915ZM10.9915 23.5147V23.5415H11.9915V23.5147H10.9915ZM10.9915 23.4878V23.5147H11.9915V23.4878H10.9915ZM10.9915 23.461V23.4878H11.9915V23.461H10.9915ZM10.9915 23.4342V23.461H11.9915V23.4342H10.9915ZM10.9915 23.4075V23.4342H11.9915V23.4075H10.9915ZM10.9915 23.3808V23.4075H11.9915V23.3808H10.9915ZM10.9915 23.3541V23.3808H11.9915V23.3541H10.9915ZM10.9915 23.3274V23.3541H11.9915V23.3274H10.9915ZM10.9915 23.3007V23.3274H11.9915V23.3007H10.9915ZM10.9915 23.2741V23.3007H11.9915V23.2741H10.9915ZM10.9915 23.2475V23.2741H11.9915V23.2475H10.9915ZM10.9915 23.2209V23.2475H11.9915V23.2209H10.9915ZM10.9915 23.1944V23.2209H11.9915V23.1944H10.9915ZM10.9915 23.1679V23.1944H11.9915V23.1679H10.9915ZM10.9915 23.1414V23.1679H11.9915V23.1414H10.9915ZM10.9915 23.1149V23.1414H11.9915V23.1149H10.9915ZM10.9915 23.0885V23.1149H11.9915V23.0885H10.9915ZM10.9915 23.0621V23.0885H11.9915V23.0621H10.9915ZM10.9915 23.0357V23.0621H11.9915V23.0357H10.9915ZM10.9915 23.0093V23.0357H11.9915V23.0093H10.9915ZM10.9915 22.983V23.0093H11.9915V22.983H10.9915ZM10.9915 22.9568V22.983H11.9915V22.9568H10.9915ZM10.9915 22.9305V22.9568H11.9915V22.9305H10.9915ZM10.9915 22.9043V22.9305H11.9915V22.9043H10.9915ZM10.9915 22.8781V22.9043H11.9915V22.8781H10.9915ZM10.9915 22.8519V22.8781H11.9915V22.8519H10.9915ZM10.9915 22.8258V22.8519H11.9915V22.8258H10.9915ZM10.9915 22.7997V22.8258H11.9915V22.7997H10.9915ZM10.9915 22.7736V22.7997H11.9915V22.7736H10.9915ZM10.9915 22.7476V22.7736H11.9915V22.7476H10.9915ZM10.9915 22.7216V22.7476H11.9915V22.7216H10.9915ZM10.9915 22.6957V22.7216H11.9915V22.6957H10.9915ZM10.9915 22.6697V22.6957H11.9915V22.6697H10.9915ZM10.9915 22.6438V22.6697H11.9915V22.6438H10.9915ZM10.9915 22.618V22.6438H11.9915V22.618H10.9915ZM10.9915 22.5922V22.618H11.9915V22.5922H10.9915ZM10.9915 22.5664V22.5922H11.9915V22.5664H10.9915ZM10.9915 22.5406V22.5664H11.9915V22.5406H10.9915ZM10.9915 22.5149V22.5406H11.9915V22.5149H10.9915ZM10.9915 22.4893V22.5149H11.9915V22.4893H10.9915ZM10.9915 22.4636V22.4893H11.9915V22.4636H10.9915ZM10.9915 22.438V22.4636H11.9915V22.438H10.9915ZM10.9915 22.4125V22.438H11.9915V22.4125H10.9915ZM10.9915 22.3869V22.4125H11.9915V22.3869H10.9915ZM10.9915 22.3615V22.3869H11.9915V22.3615H10.9915ZM10.9915 22.336V22.3615H11.9915V22.336H10.9915ZM10.9915 22.3106V22.336H11.9915V22.3106H10.9915ZM10.9915 22.2852V22.3106H11.9915V22.2852H10.9915ZM10.9915 22.2599V22.2852H11.9915V22.2599H10.9915ZM10.9915 22.2346V22.2599H11.9915V22.2346H10.9915ZM10.9915 22.2094V22.2346H11.9915V22.2094H10.9915ZM10.9915 22.1842V22.2094H11.9915V22.1842H10.9915ZM10.9915 22.159V22.1842H11.9915V22.159H10.9915ZM10.9915 22.1339V22.159H11.9915V22.1339H10.9915ZM10.9915 22.1088V22.1339H11.9915V22.1088H10.9915ZM10.9915 22.0838V22.1088H11.9915V22.0838H10.9915ZM10.9915 22.0588V22.0838H11.9915V22.0588H10.9915ZM10.9915 22.0339V22.0588H11.9915V22.0339H10.9915ZM10.9915 22.009V22.0339H11.9915V22.009H10.9915ZM10.9915 21.9841V22.009H11.9915V21.9841H10.9915ZM10.9915 21.9593V21.9841H11.9915V21.9593H10.9915ZM10.9915 21.9345V21.9593H11.9915V21.9345H10.9915ZM10.9915 21.9098V21.9345H11.9915V21.9098H10.9915ZM10.9915 21.8851V21.9098H11.9915V21.8851H10.9915ZM10.9915 21.8605V21.8851H11.9915V21.8605H10.9915ZM10.9915 21.8359V21.8605H11.9915V21.8359H10.9915ZM10.9915 21.8114V21.8359H11.9915V21.8114H10.9915ZM10.9915 21.7869V21.8114H11.9915V21.7869H10.9915ZM10.9915 21.7624V21.7869H11.9915V21.7624H10.9915ZM10.9915 21.738V21.7624H11.9915V21.738H10.9915ZM10.9915 21.7137V21.738H11.9915V21.7137H10.9915ZM10.9915 21.6894V21.7137H11.9915V21.6894H10.9915ZM10.9915 21.6651V21.6894H11.9915V21.6651H10.9915ZM10.9915 21.6409V21.6651H11.9915V21.6409H10.9915ZM10.9915 21.6168V21.6409H11.9915V21.6168H10.9915ZM10.9915 21.5927V21.6168H11.9915V21.5927H10.9915ZM10.9915 21.5686V21.5927H11.9915V21.5686H10.9915ZM10.9915 21.5446V21.5686H11.9915V21.5446H10.9915ZM10.9915 21.5207V21.5446H11.9915V21.5207H10.9915ZM10.9915 21.4968V21.5207H11.9915V21.4968H10.9915ZM10.9915 21.4729V21.4968H11.9915V21.4729H10.9915ZM10.9915 21.4491V21.4729H11.9915V21.4491H10.9915ZM10.9915 21.4254V21.4491H11.9915V21.4254H10.9915ZM10.9915 21.4017V21.4254H11.9915V21.4017H10.9915ZM10.9915 21.378V21.4017H11.9915V21.378H10.9915ZM10.9915 21.3545V21.378H11.9915V21.3545H10.9915ZM10.9915 21.3309V21.3545H11.9915V21.3309H10.9915ZM10.9915 21.3075V21.3309H11.9915V21.3075H10.9915ZM10.9915 21.284V21.3075H11.9915V21.284H10.9915ZM10.9915 21.2607V21.284H11.9915V21.2607H10.9915ZM10.9915 21.2374V21.2607H11.9915V21.2374H10.9915ZM10.9915 21.2141V21.2374H11.9915V21.2141H10.9915ZM10.9915 21.1909V21.2141H11.9915V21.1909H10.9915ZM10.9915 21.1678V21.1909H11.9915V21.1678H10.9915ZM10.9915 21.1447V21.1678H11.9915V21.1447H10.9915ZM10.9915 21.1216V21.1447H11.9915V21.1216H10.9915ZM10.9915 21.0987V21.1216H11.9915V21.0987H10.9915ZM10.9915 21.0758V21.0987H11.9915V21.0758H10.9915ZM10.9915 21.0529V21.0758H11.9915V21.0529H10.9915ZM10.9915 21.0301V21.0529H11.9915V21.0301H10.9915ZM10.9915 21.0074V21.0301H11.9915V21.0074H10.9915ZM10.9915 20.9847V21.0074H11.9915V20.9847H10.9915ZM10.9915 20.9621V20.9847H11.9915V20.9621H10.9915ZM10.9915 20.9395V20.9621H11.9915V20.9395H10.9915ZM10.9915 20.917V20.9395H11.9915V20.917H10.9915ZM10.9915 20.8946V20.917H11.9915V20.8946H10.9915ZM10.9915 20.8722V20.8946H11.9915V20.8722H10.9915ZM10.9915 20.8499V20.8722H11.9915V20.8499H10.9915ZM10.9915 20.8276V20.8499H11.9915V20.8276H10.9915ZM10.9915 20.8054V20.8276H11.9915V20.8054H10.9915ZM10.9915 20.7833V20.8054H11.9915V20.7833H10.9915ZM10.9915 20.7612V20.7833H11.9915V20.7612H10.9915ZM10.9915 20.7392V20.7612H11.9915V20.7392H10.9915ZM10.9915 20.7173V20.7392H11.9915V20.7173H10.9915ZM10.9915 20.6954V20.7173H11.9915V20.6954H10.9915ZM10.9915 20.6736V20.6954H11.9915V20.6736H10.9915ZM10.9915 20.6519V20.6736H11.9915V20.6519H10.9915ZM10.9915 20.6302V20.6519H11.9915V20.6302H10.9915ZM10.9915 20.6086V20.6302H11.9915V20.6086H10.9915ZM10.9915 20.587V20.6086H11.9915V20.587H10.9915ZM10.9915 20.5655V20.587H11.9915V20.5655H10.9915ZM10.9915 20.5441V20.5655H11.9915V20.5441H10.9915ZM10.9915 20.5228V20.5441H11.9915V20.5228H10.9915ZM10.9915 20.5015V20.5228H11.9915V20.5015H10.9915ZM10.9915 20.4803V20.5015H11.9915V20.4803H10.9915ZM10.9915 20.4591V20.4803H11.9915V20.4591H10.9915ZM10.9915 20.438V20.4591H11.9915V20.438H10.9915ZM10.9915 20.417V20.438H11.9915V20.417H10.9915ZM10.9915 20.3961V20.417H11.9915V20.3961H10.9915ZM10.9915 20.3752V20.3961H11.9915V20.3752H10.9915ZM10.9915 20.3544V20.3752H11.9915V20.3544H10.9915ZM10.9915 20.3337V20.3544H11.9915V20.3337H10.9915ZM10.9915 20.313V20.3337H11.9915V20.313H10.9915ZM10.9915 20.2924V20.313H11.9915V20.2924H10.9915ZM10.9915 20.2719V20.2924H11.9915V20.2719H10.9915ZM10.9915 20.2514V20.2719H11.9915V20.2514H10.9915ZM10.9915 20.2311V20.2514H11.9915V20.2311H10.9915ZM10.9915 20.2108V20.2311H11.9915V20.2108H10.9915ZM10.9915 20.1905V20.2108H11.9915V20.1905H10.9915ZM10.9915 20.1704V20.1905H11.9915V20.1704H10.9915ZM10.9915 20.1503V20.1704H11.9915V20.1503H10.9915ZM10.9915 20.1303V20.1503H11.9915V20.1303H10.9915ZM10.9915 20.1103V20.1303H11.9915V20.1103H10.9915ZM10.9915 20.0904V20.1103H11.9915V20.0904H10.9915ZM10.9915 20.0707V20.0904H11.9915V20.0707H10.9915ZM10.9915 20.0509V20.0707H11.9915V20.0509H10.9915ZM10.9915 20.0313V20.0509H11.9915V20.0313H10.9915ZM10.9915 20.0117V20.0313H11.9915V20.0117H10.9915ZM10.9915 19.9923V20.0117H11.9915V19.9923H10.9915ZM10.9915 19.9728V19.9923H11.9915V19.9728H10.9915ZM10.9915 19.9535V19.9728H11.9915V19.9535H10.9915ZM10.9915 19.9342V19.9535H11.9915V19.9342H10.9915ZM10.9915 19.9151V19.9342H11.9915V19.9151H10.9915ZM10.9915 19.896V19.9151H11.9915V19.896H10.9915ZM10.9915 19.8769V19.896H11.9915V19.8769H10.9915ZM10.9915 19.858V19.8769H11.9915V19.858H10.9915ZM10.9915 19.8391V19.858H11.9915V19.8391H10.9915ZM10.9915 19.8203V19.8391H11.9915V19.8203H10.9915ZM10.9915 19.8016V19.8203H11.9915V19.8016H10.9915ZM10.9915 19.783V19.8016H11.9915V19.783H10.9915ZM10.9915 19.7645V19.783H11.9915V19.7645H10.9915ZM10.9915 19.746V19.7645H11.9915V19.746H10.9915ZM10.9915 19.7276V19.746H11.9915V19.7276H10.9915ZM10.9915 19.7093V19.7276H11.9915V19.7093H10.9915ZM10.9915 19.6911V19.7093H11.9915V19.6911H10.9915ZM10.9915 19.6729V19.6911H11.9915V19.6729H10.9915ZM10.9915 19.6549V19.6729H11.9915V19.6549H10.9915ZM10.9915 19.6369V19.6549H11.9915V19.6369H10.9915ZM10.9915 19.619V19.6369H11.9915V19.619H10.9915ZM10.9915 19.6012V19.619H11.9915V19.6012H10.9915ZM10.9915 19.5835V19.6012H11.9915V19.5835H10.9915ZM10.9915 19.5659V19.5835H11.9915V19.5659H10.9915ZM10.9915 19.5483V19.5659H11.9915V19.5483H10.9915ZM10.9915 19.5308V19.5483H11.9915V19.5308H10.9915ZM10.9915 19.5135V19.5308H11.9915V19.5135H10.9915ZM10.9915 19.4962V19.5135H11.9915V19.4962H10.9915ZM10.9915 19.479V19.4962H11.9915V19.479H10.9915ZM10.9915 19.4618V19.479H11.9915V19.4618H10.9915ZM10.9915 19.4448V19.4618H11.9915V19.4448H10.9915ZM10.9915 19.4278V19.4448H11.9915V19.4278H10.9915ZM10.9915 19.411V19.4278H11.9915V19.411H10.9915ZM10.9915 19.3942V19.411H11.9915V19.3942H10.9915ZM10.9915 19.3775V19.3942H11.9915V19.3775H10.9915ZM10.9915 19.3609V19.3775H11.9915V19.3609H10.9915ZM10.9915 19.3444V19.3609H11.9915V19.3444H10.9915ZM10.9915 19.328V19.3444H11.9915V19.328H10.9915ZM10.9915 19.3117V19.328H11.9915V19.3117H10.9915ZM10.9915 19.2954V19.3117H11.9915V19.2954H10.9915ZM10.9915 19.2793V19.2954H11.9915V19.2793H10.9915ZM10.9915 19.2632V19.2793H11.9915V19.2632H10.9915ZM10.9915 19.2473V19.2632H11.9915V19.2473H10.9915ZM10.9915 19.2314V19.2473H11.9915V19.2314H10.9915ZM10.9915 19.2156V19.2314H11.9915V19.2156H10.9915ZM10.9915 19.1999V19.2156H11.9915V19.1999H10.9915ZM10.9915 19.1843V19.1999H11.9915V19.1843H10.9915ZM10.9915 19.1688V19.1843H11.9915V19.1688H10.9915ZM10.9915 19.1534V19.1688H11.9915V19.1534H10.9915ZM10.9915 19.1381V19.1534H11.9915V19.1381H10.9915ZM10.9915 19.1229V19.1381H11.9915V19.1229H10.9915ZM10.9915 19.1077V19.1229H11.9915V19.1077H10.9915ZM10.9915 19.0927V19.1077H11.9915V19.0927H10.9915ZM10.9915 19.0778V19.0927H11.9915V19.0778H10.9915ZM10.9915 19.0629V19.0778H11.9915V19.0629H10.9915ZM10.9915 19.0482V19.0629H11.9915V19.0482H10.9915ZM10.9915 19.0335V19.0482H11.9915V19.0335H10.9915ZM10.9915 19.019V19.0335H11.9915V19.019H10.9915ZM10.9915 19.0045V19.019H11.9915V19.0045H10.9915ZM10.9915 18.9901V19.0045H11.9915V18.9901H10.9915ZM10.9915 18.9759V18.9901H11.9915V18.9759H10.9915ZM10.9915 18.9617V18.9759H11.9915V18.9617H10.9915ZM10.9915 18.9477V18.9617H11.9915V18.9477H10.9915ZM10.9915 18.9337V18.9477H11.9915V18.9337H10.9915ZM10.9915 18.9198V18.9337H11.9915V18.9198H10.9915ZM10.9915 18.9061V18.9198H11.9915V18.9061H10.9915ZM10.9915 18.8924V18.9061H11.9915V18.8924H10.9915ZM10.9915 18.8788V18.8924H11.9915V18.8788H10.9915ZM10.9915 18.8654V18.8788H11.9915V18.8654H10.9915ZM10.9915 18.852V18.8654H11.9915V18.852H10.9915ZM10.9915 18.8387V18.852H11.9915V18.8387H10.9915ZM10.9915 18.8256V18.8387H11.9915V18.8256H10.9915ZM10.9915 18.8125V18.8256H11.9915V18.8125H10.9915ZM10.9915 18.7995V18.8125H11.9915V18.7995H10.9915ZM10.9915 18.7867V18.7995H11.9915V18.7867H10.9915ZM10.9915 18.7739V18.7867H11.9915V18.7739H10.9915ZM10.9915 18.7613V18.7739H11.9915V18.7613H10.9915ZM10.9915 18.7487V18.7613H11.9915V18.7487H10.9915ZM10.9915 18.7363V18.7487H11.9915V18.7363H10.9915ZM10.9915 18.7239V18.7363H11.9915V18.7239H10.9915ZM10.9915 18.7117V18.7239H11.9915V18.7117H10.9915ZM10.9915 18.6996V18.7117H11.9915V18.6996H10.9915ZM10.9915 18.6876V18.6996H11.9915V18.6876H10.9915ZM10.9915 18.6757V18.6876H11.9915V18.6757H10.9915ZM10.9915 18.6638V18.6757H11.9915V18.6638H10.9915ZM10.9915 18.6521V18.6638H11.9915V18.6521H10.9915ZM10.9915 18.6405V18.6521H11.9915V18.6405H10.9915ZM10.9915 18.6291V18.6405H11.9915V18.6291H10.9915ZM10.9915 18.6177V18.6291H11.9915V18.6177H10.9915ZM10.9915 18.6064V18.6177H11.9915V18.6064H10.9915ZM10.9915 18.5952V18.6064H11.9915V18.5952H10.9915ZM10.9915 18.5842V18.5952H11.9915V18.5842H10.9915ZM10.9915 18.5798V18.5842H11.9915V18.5798H10.9915ZM20.6594 18.0798H11.4915V19.0798H20.6594V18.0798ZM21.1594 18.0798H20.6594V19.0798H21.1594V18.0798ZM20.6594 18.0798V18.5798H21.6594V18.0798H20.6594ZM20.6594 16.9028V18.0798H21.6594V16.9028H20.6594ZM20.6594 16.723V16.9028H21.6594V16.723H20.6594ZM20.6594 16.9028L20.7739 17.0414L21.5449 16.4045L21.4303 16.2659L20.6594 16.9028ZM17.5793 13.1743L20.6594 16.9028L21.4303 16.2659L18.3503 12.5374L17.5793 13.1743ZM17.4648 6.9386V12.8558H18.4648V6.9386H17.4648ZM12.4648 1.93859C15.2262 1.93859 17.4648 4.17717 17.4648 6.9386H18.4648C18.4648 3.62489 15.7785 0.938595 12.4648 0.938595V1.93859ZM9.51821 1.93859H12.4648V0.938595H9.51821V1.93859Z" fill="black"/>
</svg>
