<svg width="22" height="28" viewBox="0 0 22 28" fill="none" xmlns="http://www.w3.org/2000/svg">
<path d="M1.5 1.5L20.5 23.5" stroke="black" stroke-width="2" stroke-linecap="round"/>
<path fill-rule="evenodd" clip-rule="evenodd" d="M3.85833 8.05555V12.4264L1.10436 15.9903L1 16.1254V16.2961V17.6412V18.1412H1.5H10.3316V18.1456V18.1566V18.1678V18.1791V18.1905V18.2019V18.2135V18.2252V18.2371V18.249V18.261V18.2731V18.2854V18.2977V18.3101V18.3227V18.3353V18.3481V18.3609V18.3739V18.387V18.4001V18.4134V18.4268V18.4402V18.4538V18.4675V18.4812V18.4951V18.5091V18.5231V18.5373V18.5516V18.5659V18.5804V18.5949V18.6096V18.6243V18.6392V18.6541V18.6691V18.6843V18.6995V18.7148V18.7302V18.7457V18.7613V18.777V18.7928V18.8087V18.8246V18.8407V18.8568V18.8731V18.8894V18.9058V18.9223V18.9389V18.9556V18.9724V18.9892V19.0062V19.0232V19.0404V19.0576V19.0749V19.0922V19.1097V19.1273V19.1449V19.1626V19.1804V19.1983V19.2163V19.2344V19.2525V19.2707V19.289V19.3074V19.3259V19.3444V19.363V19.3817V19.4005V19.4194V19.4383V19.4574V19.4765V19.4956V19.5149V19.5342V19.5537V19.5731V19.5927V19.6123V19.6321V19.6519V19.6717V19.6917V19.7117V19.7318V19.7519V19.7722V19.7925V19.8128V19.8333V19.8538V19.8744V19.8951V19.9158V19.9366V19.9575V19.9784V19.9994V20.0205V20.0417V20.0629V20.0842V20.1055V20.1269V20.1484V20.17V20.1916V20.2133V20.235V20.2568V20.2787V20.3006V20.3226V20.3447V20.3668V20.389V20.4113V20.4336V20.456V20.4784V20.5009V20.5235V20.5461V20.5688V20.5915V20.6143V20.6372V20.6601V20.6831V20.7061V20.7292V20.7523V20.7755V20.7988V20.8221V20.8454V20.8689V20.8923V20.9159V20.9395V20.9631V20.9868V21.0105V21.0343V21.0582V21.0821V21.106V21.13V21.1541V21.1782V21.2023V21.2265V21.2508V21.2751V21.2994V21.3238V21.3483V21.3728V21.3973V21.4219V21.4465V21.4712V21.4959V21.5207V21.5455V21.5704V21.5953V21.6202V21.6452V21.6702V21.6953V21.7204V21.7456V21.7708V21.796V21.8213V21.8466V21.872V21.8974V21.9229V21.9483V21.9739V21.9994V22.025V22.0507V22.0763V22.102V22.1278V22.1536V22.1794V22.2053V22.2311V22.2571V22.283V22.309V22.335V22.3611V22.3872V22.4133V22.4395V22.4657V22.4919V22.5182V22.5444V22.5708V22.5971V22.6235V22.6499V22.6763V22.7028V22.7293V22.7558V22.7823V22.8089V22.8355V22.8621V22.8888V22.9155V22.9422V22.9689V22.9957V23.0224V23.0492V23.0761V23.1029V23.1298V23.1567V23.1836V23.2105V23.2375V23.2645V23.2915V23.3185V23.3456V23.3726V23.3997V23.4268V23.4539V23.4811V23.5082V23.5354V23.5626V23.5898V23.617V23.6443V23.6715V23.6988V23.7261V23.7534V23.7807V23.808V23.8354V23.8627V23.8901V23.9175V23.9449V23.9723V23.9997V24.0271V24.0546V24.082V24.1095V24.137V24.1644V24.1919V24.2194V24.2469V24.2744V24.302V24.3295V24.357V24.3846V24.4121V24.4397V24.4672V24.4948V24.5224V24.5499V24.5775V24.6051V24.6327V24.6603V24.6879V24.7154V24.743V24.7706V24.7982V24.8258V24.8534V24.881V24.9086V24.9362V24.9638V24.9914V25.019V25.0466V25.0742V25.1017V25.1293V25.1569V25.1845V25.212V25.2396V25.2672V25.2947V25.3223V25.3498V25.3773V25.4049V25.4324V25.4599V25.4874V25.5149V25.5424V25.5444L10.8401 26.5614L11.3316 25.5784V25.5699V25.5424V25.5149V25.4874V25.4599V25.4324V25.4049V25.3773V25.3498V25.3223V25.2947V25.2672V25.2396V25.212V25.1845V25.1569V25.1293V25.1017V25.0742V25.0466V25.019V24.9914V24.9638V24.9362V24.9086V24.881V24.8534V24.8258V24.7982V24.7706V24.743V24.7154V24.6879V24.6603V24.6327V24.6051V24.5775V24.5499V24.5224V24.4948V24.4672V24.4397V24.4121V24.3846V24.357V24.3295V24.302V24.2744V24.2469V24.2194V24.1919V24.1644V24.137V24.1095V24.082V24.0546V24.0271V23.9997V23.9723V23.9449V23.9175V23.8901V23.8627V23.8354V23.808V23.7807V23.7534V23.7261V23.6988V23.6715V23.6443V23.617V23.5898V23.5626V23.5354V23.5082V23.4811V23.4539V23.4268V23.3997V23.3726V23.3456V23.3185V23.2915V23.2645V23.2375V23.2105V23.1836V23.1567V23.1298V23.1029V23.0761V23.0492V23.0224V22.9957V22.9689V22.9422V22.9155V22.8888V22.8621V22.8355V22.8089V22.7823V22.7558V22.7293V22.7028V22.6763V22.6499V22.6235V22.5971V22.5708V22.5444V22.5182V22.4919V22.4657V22.4395V22.4133V22.3872V22.3611V22.335V22.309V22.283V22.2571V22.2311V22.2053V22.1794V22.1536V22.1278V22.102V22.0763V22.0507V22.025V21.9994V21.9739V21.9483V21.9229V21.8974V21.872V21.8466V21.8213V21.796V21.7708V21.7456V21.7204V21.6953V21.6702V21.6452V21.6202V21.5953V21.5704V21.5455V21.5207V21.4959V21.4712V21.4465V21.4219V21.3973V21.3728V21.3483V21.3238V21.2994V21.2751V21.2508V21.2265V21.2023V21.1782V21.1541V21.13V21.106V21.0821V21.0582V21.0343V21.0105V20.9868V20.9631V20.9395V20.9159V20.8923V20.8689V20.8454V20.8221V20.7988V20.7755V20.7523V20.7292V20.7061V20.6831V20.6601V20.6372V20.6143V20.5915V20.5688V20.5461V20.5235V20.5009V20.4784V20.456V20.4336V20.4113V20.389V20.3668V20.3447V20.3226V20.3006V20.2787V20.2568V20.235V20.2133V20.1916V20.17V20.1484V20.1269V20.1055V20.0842V20.0629V20.0417V20.0205V19.9994V19.9784V19.9575V19.9366V19.9158V19.8951V19.8744V19.8538V19.8333V19.8128V19.7925V19.7722V19.7519V19.7318V19.7117V19.6917V19.6717V19.6519V19.6321V19.6123V19.5927V19.5731V19.5537V19.5342V19.5149V19.4956V19.4765V19.4574V19.4383V19.4194V19.4005V19.3817V19.363V19.3444V19.3259V19.3074V19.289V19.2707V19.2525V19.2344V19.2163V19.1983V19.1804V19.1626V19.1449V19.1273V19.1097V19.0922V19.0749V19.0576V19.0404V19.0232V19.0062V18.9892V18.9724V18.9556V18.9389V18.9223V18.9058V18.8894V18.8731V18.8568V18.8407V18.8246V18.8087V18.7928V18.777V18.7613V18.7457V18.7302V18.7148V18.6995V18.6843V18.6691V18.6541V18.6392V18.6243V18.6096V18.5949V18.5804V18.5659V18.5516V18.5373V18.5231V18.5091V18.4951V18.4812V18.4675V18.4538V18.4402V18.4268V18.4134V18.4001V18.387V18.3739V18.3609V18.3481V18.3353V18.3227V18.3101V18.2977V18.2854V18.2731V18.261V18.249V18.2371V18.2252V18.2135V18.2019V18.1905V18.1791V18.1678V18.1566V18.1456V18.1412H12.5686L11.705 17.1412H10.8316H2V16.4667L4.75397 12.9028L4.85833 12.7677V12.597V9.21345L3.85833 8.05555ZM18.3116 17.1412H19.9995V16.644L16.9194 12.9155L16.8049 12.7769V12.597V6.5C16.8049 4.01472 14.7902 2 12.3049 2H9.35833C8.16941 2 7.08818 2.46107 6.28369 3.21416L5.62964 2.45684C6.60979 1.55247 7.91954 1 9.35833 1H12.3049C15.3425 1 17.8049 3.46244 17.8049 6.5V12.4172L20.885 16.1458L20.9995 16.2844V16.4642V17.6412V18.1412H20.4995H19.1752L18.3116 17.1412Z" fill="black"/>
<path d="M3.85833 8.05555L4.23674 7.72874L3.35833 6.71164V8.05555H3.85833ZM3.85833 12.4264L4.25397 12.7321L4.35833 12.597V12.4264H3.85833ZM1.10436 15.9903L0.708715 15.6846L0.708714 15.6846L1.10436 15.9903ZM1 16.1254L0.604357 15.8197L0.5 15.9547V16.1254H1ZM1 18.1412H0.5V18.6412H1V18.1412ZM10.3316 18.1412H10.8316V17.6412H10.3316V18.1412ZM10.3316 25.5444H9.83161V25.6624L9.8844 25.768L10.3316 25.5444ZM10.8401 26.5614L10.3929 26.785L10.8401 27.6794L11.2873 26.785L10.8401 26.5614ZM11.3316 25.5784L11.7788 25.802L11.8316 25.6965V25.5784H11.3316ZM11.3316 18.1412V17.6412H10.8316V18.1412H11.3316ZM12.5686 18.1412V18.6412H13.6611L12.947 17.8144L12.5686 18.1412ZM11.705 17.1412L12.0834 16.8144L11.9338 16.6412H11.705V17.1412ZM2 17.1412H1.5V17.6412H2V17.1412ZM2 16.4667L1.60436 16.161L1.5 16.2961V16.4667H2ZM4.75397 12.9028L5.14962 13.2085L5.14962 13.2085L4.75397 12.9028ZM4.85833 12.7677L5.25397 13.0734L5.35833 12.9384V12.7677H4.85833ZM4.85833 9.21345H5.35833V9.02742L5.23674 8.88664L4.85833 9.21345ZM19.9995 17.1412V17.6412H20.4995V17.1412H19.9995ZM18.3116 17.1412V16.6412H17.2191L17.9331 17.468L18.3116 17.1412ZM19.9995 16.644H20.4995V16.4642L20.385 16.3256L19.9995 16.644ZM16.9194 12.9155L17.3049 12.597L17.3049 12.597L16.9194 12.9155ZM16.8049 12.7769H16.3049V12.9567L16.4194 13.0953L16.8049 12.7769ZM6.28369 3.21416L5.90528 3.54097L6.24545 3.93485L6.62539 3.57918L6.28369 3.21416ZM5.62964 2.45684L5.29058 2.08936L4.93498 2.41747L5.25123 2.78365L5.62964 2.45684ZM17.8049 12.4172H17.3049V12.5971L17.4194 12.7357L17.8049 12.4172ZM20.885 16.1458L20.4995 16.4642L20.4995 16.4642L20.885 16.1458ZM20.9995 16.2844H21.4995V16.1046L21.385 15.966L20.9995 16.2844ZM20.9995 18.1412V18.6412H21.4995V18.1412H20.9995ZM19.1752 18.1412L18.7968 18.468L18.9464 18.6412H19.1752V18.1412ZM3.35833 8.05555V12.4264H4.35833V8.05555H3.35833ZM3.46269 12.1207L0.708715 15.6846L1.5 16.2961L4.25397 12.7321L3.46269 12.1207ZM0.708714 15.6846L0.604357 15.8197L1.39564 16.4311L1.5 16.2961L0.708714 15.6846ZM0.5 16.1254V16.2961H1.5V16.1254H0.5ZM0.5 16.2961V17.6412H1.5V16.2961H0.5ZM0.5 17.6412V18.1412H1.5V17.6412H0.5ZM1 18.6412H1.5V17.6412H1V18.6412ZM1.5 18.6412H10.3316V17.6412H1.5V18.6412ZM9.83161 18.1412V18.1456H10.8316V18.1412H9.83161ZM9.83161 18.1456V18.1566H10.8316V18.1456H9.83161ZM9.83161 18.1566V18.1678H10.8316V18.1566H9.83161ZM9.83161 18.1678V18.1791H10.8316V18.1678H9.83161ZM9.83161 18.1791V18.1905H10.8316V18.1791H9.83161ZM9.83161 18.1905V18.2019H10.8316V18.1905H9.83161ZM9.83161 18.2019V18.2135H10.8316V18.2019H9.83161ZM9.83161 18.2135V18.2252H10.8316V18.2135H9.83161ZM9.83161 18.2252V18.2371H10.8316V18.2252H9.83161ZM9.83161 18.2371V18.249H10.8316V18.2371H9.83161ZM9.83161 18.249V18.261H10.8316V18.249H9.83161ZM9.83161 18.261V18.2731H10.8316V18.261H9.83161ZM9.83161 18.2731V18.2854H10.8316V18.2731H9.83161ZM9.83161 18.2854V18.2977H10.8316V18.2854H9.83161ZM9.83161 18.2977V18.3101H10.8316V18.2977H9.83161ZM9.83161 18.3101V18.3227H10.8316V18.3101H9.83161ZM9.83161 18.3227V18.3353H10.8316V18.3227H9.83161ZM9.83161 18.3353V18.3481H10.8316V18.3353H9.83161ZM9.83161 18.3481V18.3609H10.8316V18.3481H9.83161ZM9.83161 18.3609V18.3739H10.8316V18.3609H9.83161ZM9.83161 18.3739V18.387H10.8316V18.3739H9.83161ZM9.83161 18.387V18.4001H10.8316V18.387H9.83161ZM9.83161 18.4001V18.4134H10.8316V18.4001H9.83161ZM9.83161 18.4134V18.4268H10.8316V18.4134H9.83161ZM9.83161 18.4268V18.4402H10.8316V18.4268H9.83161ZM9.83161 18.4402V18.4538H10.8316V18.4402H9.83161ZM9.83161 18.4538V18.4675H10.8316V18.4538H9.83161ZM9.83161 18.4675V18.4812H10.8316V18.4675H9.83161ZM9.83161 18.4812V18.4951H10.8316V18.4812H9.83161ZM9.83161 18.4951V18.5091H10.8316V18.4951H9.83161ZM9.83161 18.5091V18.5231H10.8316V18.5091H9.83161ZM9.83161 18.5231V18.5373H10.8316V18.5231H9.83161ZM9.83161 18.5373V18.5516H10.8316V18.5373H9.83161ZM9.83161 18.5516V18.5659H10.8316V18.5516H9.83161ZM9.83161 18.5659V18.5804H10.8316V18.5659H9.83161ZM9.83161 18.5804V18.5949H10.8316V18.5804H9.83161ZM9.83161 18.5949V18.6096H10.8316V18.5949H9.83161ZM9.83161 18.6096V18.6243H10.8316V18.6096H9.83161ZM9.83161 18.6243V18.6392H10.8316V18.6243H9.83161ZM9.83161 18.6392V18.6541H10.8316V18.6392H9.83161ZM9.83161 18.6541V18.6691H10.8316V18.6541H9.83161ZM9.83161 18.6691V18.6843H10.8316V18.6691H9.83161ZM9.83161 18.6843V18.6995H10.8316V18.6843H9.83161ZM9.83161 18.6995V18.7148H10.8316V18.6995H9.83161ZM9.83161 18.7148V18.7302H10.8316V18.7148H9.83161ZM9.83161 18.7302V18.7457H10.8316V18.7302H9.83161ZM9.83161 18.7457V18.7613H10.8316V18.7457H9.83161ZM9.83161 18.7613V18.777H10.8316V18.7613H9.83161ZM9.83161 18.777V18.7928H10.8316V18.777H9.83161ZM9.83161 18.7928V18.8087H10.8316V18.7928H9.83161ZM9.83161 18.8087V18.8246H10.8316V18.8087H9.83161ZM9.83161 18.8246V18.8407H10.8316V18.8246H9.83161ZM9.83161 18.8407V18.8568H10.8316V18.8407H9.83161ZM9.83161 18.8568V18.8731H10.8316V18.8568H9.83161ZM9.83161 18.8731V18.8894H10.8316V18.8731H9.83161ZM9.83161 18.8894V18.9058H10.8316V18.8894H9.83161ZM9.83161 18.9058V18.9223H10.8316V18.9058H9.83161ZM9.83161 18.9223V18.9389H10.8316V18.9223H9.83161ZM9.83161 18.9389V18.9556H10.8316V18.9389H9.83161ZM9.83161 18.9556V18.9724H10.8316V18.9556H9.83161ZM9.83161 18.9724V18.9892H10.8316V18.9724H9.83161ZM9.83161 18.9892V19.0062H10.8316V18.9892H9.83161ZM9.83161 19.0062V19.0232H10.8316V19.0062H9.83161ZM9.83161 19.0232V19.0404H10.8316V19.0232H9.83161ZM9.83161 19.0404V19.0576H10.8316V19.0404H9.83161ZM9.83161 19.0576V19.0749H10.8316V19.0576H9.83161ZM9.83161 19.0749V19.0922H10.8316V19.0749H9.83161ZM9.83161 19.0922V19.1097H10.8316V19.0922H9.83161ZM9.83161 19.1097V19.1273H10.8316V19.1097H9.83161ZM9.83161 19.1273V19.1449H10.8316V19.1273H9.83161ZM9.83161 19.1449V19.1626H10.8316V19.1449H9.83161ZM9.83161 19.1626V19.1804H10.8316V19.1626H9.83161ZM9.83161 19.1804V19.1983H10.8316V19.1804H9.83161ZM9.83161 19.1983V19.2163H10.8316V19.1983H9.83161ZM9.83161 19.2163V19.2344H10.8316V19.2163H9.83161ZM9.83161 19.2344V19.2525H10.8316V19.2344H9.83161ZM9.83161 19.2525V19.2707H10.8316V19.2525H9.83161ZM9.83161 19.2707V19.289H10.8316V19.2707H9.83161ZM9.83161 19.289V19.3074H10.8316V19.289H9.83161ZM9.83161 19.3074V19.3259H10.8316V19.3074H9.83161ZM9.83161 19.3259V19.3444H10.8316V19.3259H9.83161ZM9.83161 19.3444V19.363H10.8316V19.3444H9.83161ZM9.83161 19.363V19.3817H10.8316V19.363H9.83161ZM9.83161 19.3817V19.4005H10.8316V19.3817H9.83161ZM9.83161 19.4005V19.4194H10.8316V19.4005H9.83161ZM9.83161 19.4194V19.4383H10.8316V19.4194H9.83161ZM9.83161 19.4383V19.4574H10.8316V19.4383H9.83161ZM9.83161 19.4574V19.4765H10.8316V19.4574H9.83161ZM9.83161 19.4765V19.4956H10.8316V19.4765H9.83161ZM9.83161 19.4956V19.5149H10.8316V19.4956H9.83161ZM9.83161 19.5149V19.5342H10.8316V19.5149H9.83161ZM9.83161 19.5342V19.5537H10.8316V19.5342H9.83161ZM9.83161 19.5537V19.5731H10.8316V19.5537H9.83161ZM9.83161 19.5731V19.5927H10.8316V19.5731H9.83161ZM9.83161 19.5927V19.6123H10.8316V19.5927H9.83161ZM9.83161 19.6123V19.6321H10.8316V19.6123H9.83161ZM9.83161 19.6321V19.6519H10.8316V19.6321H9.83161ZM9.83161 19.6519V19.6717H10.8316V19.6519H9.83161ZM9.83161 19.6717V19.6917H10.8316V19.6717H9.83161ZM9.83161 19.6917V19.7117H10.8316V19.6917H9.83161ZM9.83161 19.7117V19.7318H10.8316V19.7117H9.83161ZM9.83161 19.7318V19.7519H10.8316V19.7318H9.83161ZM9.83161 19.7519V19.7722H10.8316V19.7519H9.83161ZM9.83161 19.7722V19.7925H10.8316V19.7722H9.83161ZM9.83161 19.7925V19.8128H10.8316V19.7925H9.83161ZM9.83161 19.8128V19.8333H10.8316V19.8128H9.83161ZM9.83161 19.8333V19.8538H10.8316V19.8333H9.83161ZM9.83161 19.8538V19.8744H10.8316V19.8538H9.83161ZM9.83161 19.8744V19.8951H10.8316V19.8744H9.83161ZM9.83161 19.8951V19.9158H10.8316V19.8951H9.83161ZM9.83161 19.9158V19.9366H10.8316V19.9158H9.83161ZM9.83161 19.9366V19.9575H10.8316V19.9366H9.83161ZM9.83161 19.9575V19.9784H10.8316V19.9575H9.83161ZM9.83161 19.9784V19.9994H10.8316V19.9784H9.83161ZM9.83161 19.9994V20.0205H10.8316V19.9994H9.83161ZM9.83161 20.0205V20.0417H10.8316V20.0205H9.83161ZM9.83161 20.0417V20.0629H10.8316V20.0417H9.83161ZM9.83161 20.0629V20.0842H10.8316V20.0629H9.83161ZM9.83161 20.0842V20.1055H10.8316V20.0842H9.83161ZM9.83161 20.1055V20.1269H10.8316V20.1055H9.83161ZM9.83161 20.1269V20.1484H10.8316V20.1269H9.83161ZM9.83161 20.1484V20.17H10.8316V20.1484H9.83161ZM9.83161 20.17V20.1916H10.8316V20.17H9.83161ZM9.83161 20.1916V20.2133H10.8316V20.1916H9.83161ZM9.83161 20.2133V20.235H10.8316V20.2133H9.83161ZM9.83161 20.235V20.2568H10.8316V20.235H9.83161ZM9.83161 20.2568V20.2787H10.8316V20.2568H9.83161ZM9.83161 20.2787V20.3006H10.8316V20.2787H9.83161ZM9.83161 20.3006V20.3226H10.8316V20.3006H9.83161ZM9.83161 20.3226V20.3447H10.8316V20.3226H9.83161ZM9.83161 20.3447V20.3668H10.8316V20.3447H9.83161ZM9.83161 20.3668V20.389H10.8316V20.3668H9.83161ZM9.83161 20.389V20.4113H10.8316V20.389H9.83161ZM9.83161 20.4113V20.4336H10.8316V20.4113H9.83161ZM9.83161 20.4336V20.456H10.8316V20.4336H9.83161ZM9.83161 20.456V20.4784H10.8316V20.456H9.83161ZM9.83161 20.4784V20.5009H10.8316V20.4784H9.83161ZM9.83161 20.5009V20.5235H10.8316V20.5009H9.83161ZM9.83161 20.5235V20.5461H10.8316V20.5235H9.83161ZM9.83161 20.5461V20.5688H10.8316V20.5461H9.83161ZM9.83161 20.5688V20.5915H10.8316V20.5688H9.83161ZM9.83161 20.5915V20.6143H10.8316V20.5915H9.83161ZM9.83161 20.6143V20.6372H10.8316V20.6143H9.83161ZM9.83161 20.6372V20.6601H10.8316V20.6372H9.83161ZM9.83161 20.6601V20.6831H10.8316V20.6601H9.83161ZM9.83161 20.6831V20.7061H10.8316V20.6831H9.83161ZM9.83161 20.7061V20.7292H10.8316V20.7061H9.83161ZM9.83161 20.7292V20.7523H10.8316V20.7292H9.83161ZM9.83161 20.7523V20.7755H10.8316V20.7523H9.83161ZM9.83161 20.7755V20.7988H10.8316V20.7755H9.83161ZM9.83161 20.7988V20.8221H10.8316V20.7988H9.83161ZM9.83161 20.8221V20.8454H10.8316V20.8221H9.83161ZM9.83161 20.8454V20.8689H10.8316V20.8454H9.83161ZM9.83161 20.8689V20.8923H10.8316V20.8689H9.83161ZM9.83161 20.8923V20.9159H10.8316V20.8923H9.83161ZM9.83161 20.9159V20.9395H10.8316V20.9159H9.83161ZM9.83161 20.9395V20.9631H10.8316V20.9395H9.83161ZM9.83161 20.9631V20.9868H10.8316V20.9631H9.83161ZM9.83161 20.9868V21.0105H10.8316V20.9868H9.83161ZM9.83161 21.0105V21.0343H10.8316V21.0105H9.83161ZM9.83161 21.0343V21.0582H10.8316V21.0343H9.83161ZM9.83161 21.0582V21.0821H10.8316V21.0582H9.83161ZM9.83161 21.0821V21.106H10.8316V21.0821H9.83161ZM9.83161 21.106V21.13H10.8316V21.106H9.83161ZM9.83161 21.13V21.1541H10.8316V21.13H9.83161ZM9.83161 21.1541V21.1782H10.8316V21.1541H9.83161ZM9.83161 21.1782V21.2023H10.8316V21.1782H9.83161ZM9.83161 21.2023V21.2265H10.8316V21.2023H9.83161ZM9.83161 21.2265V21.2508H10.8316V21.2265H9.83161ZM9.83161 21.2508V21.2751H10.8316V21.2508H9.83161ZM9.83161 21.2751V21.2994H10.8316V21.2751H9.83161ZM9.83161 21.2994V21.3238H10.8316V21.2994H9.83161ZM9.83161 21.3238V21.3483H10.8316V21.3238H9.83161ZM9.83161 21.3483V21.3728H10.8316V21.3483H9.83161ZM9.83161 21.3728V21.3973H10.8316V21.3728H9.83161ZM9.83161 21.3973V21.4219H10.8316V21.3973H9.83161ZM9.83161 21.4219V21.4465H10.8316V21.4219H9.83161ZM9.83161 21.4465V21.4712H10.8316V21.4465H9.83161ZM9.83161 21.4712V21.4959H10.8316V21.4712H9.83161ZM9.83161 21.4959V21.5207H10.8316V21.4959H9.83161ZM9.83161 21.5207V21.5455H10.8316V21.5207H9.83161ZM9.83161 21.5455V21.5704H10.8316V21.5455H9.83161ZM9.83161 21.5704V21.5953H10.8316V21.5704H9.83161ZM9.83161 21.5953V21.6202H10.8316V21.5953H9.83161ZM9.83161 21.6202V21.6452H10.8316V21.6202H9.83161ZM9.83161 21.6452V21.6702H10.8316V21.6452H9.83161ZM9.83161 21.6702V21.6953H10.8316V21.6702H9.83161ZM9.83161 21.6953V21.7204H10.8316V21.6953H9.83161ZM9.83161 21.7204V21.7456H10.8316V21.7204H9.83161ZM9.83161 21.7456V21.7708H10.8316V21.7456H9.83161ZM9.83161 21.7708V21.796H10.8316V21.7708H9.83161ZM9.83161 21.796V21.8213H10.8316V21.796H9.83161ZM9.83161 21.8213V21.8466H10.8316V21.8213H9.83161ZM9.83161 21.8466V21.872H10.8316V21.8466H9.83161ZM9.83161 21.872V21.8974H10.8316V21.872H9.83161ZM9.83161 21.8974V21.9229H10.8316V21.8974H9.83161ZM9.83161 21.9229V21.9483H10.8316V21.9229H9.83161ZM9.83161 21.9483V21.9739H10.8316V21.9483H9.83161ZM9.83161 21.9739V21.9994H10.8316V21.9739H9.83161ZM9.83161 21.9994V22.025H10.8316V21.9994H9.83161ZM9.83161 22.025V22.0507H10.8316V22.025H9.83161ZM9.83161 22.0507V22.0763H10.8316V22.0507H9.83161ZM9.83161 22.0763V22.102H10.8316V22.0763H9.83161ZM9.83161 22.102V22.1278H10.8316V22.102H9.83161ZM9.83161 22.1278V22.1536H10.8316V22.1278H9.83161ZM9.83161 22.1536V22.1794H10.8316V22.1536H9.83161ZM9.83161 22.1794V22.2053H10.8316V22.1794H9.83161ZM9.83161 22.2053V22.2311H10.8316V22.2053H9.83161ZM9.83161 22.2311V22.2571H10.8316V22.2311H9.83161ZM9.83161 22.2571V22.283H10.8316V22.2571H9.83161ZM9.83161 22.283V22.309H10.8316V22.283H9.83161ZM9.83161 22.309V22.335H10.8316V22.309H9.83161ZM9.83161 22.335V22.3611H10.8316V22.335H9.83161ZM9.83161 22.3611V22.3872H10.8316V22.3611H9.83161ZM9.83161 22.3872V22.4133H10.8316V22.3872H9.83161ZM9.83161 22.4133V22.4395H10.8316V22.4133H9.83161ZM9.83161 22.4395V22.4657H10.8316V22.4395H9.83161ZM9.83161 22.4657V22.4919H10.8316V22.4657H9.83161ZM9.83161 22.4919V22.5182H10.8316V22.4919H9.83161ZM9.83161 22.5182V22.5444H10.8316V22.5182H9.83161ZM9.83161 22.5444V22.5708H10.8316V22.5444H9.83161ZM9.83161 22.5708V22.5971H10.8316V22.5708H9.83161ZM9.83161 22.5971V22.6235H10.8316V22.5971H9.83161ZM9.83161 22.6235V22.6499H10.8316V22.6235H9.83161ZM9.83161 22.6499V22.6763H10.8316V22.6499H9.83161ZM9.83161 22.6763V22.7028H10.8316V22.6763H9.83161ZM9.83161 22.7028V22.7293H10.8316V22.7028H9.83161ZM9.83161 22.7293V22.7558H10.8316V22.7293H9.83161ZM9.83161 22.7558V22.7823H10.8316V22.7558H9.83161ZM9.83161 22.7823V22.8089H10.8316V22.7823H9.83161ZM9.83161 22.8089V22.8355H10.8316V22.8089H9.83161ZM9.83161 22.8355V22.8621H10.8316V22.8355H9.83161ZM9.83161 22.8621V22.8888H10.8316V22.8621H9.83161ZM9.83161 22.8888V22.9155H10.8316V22.8888H9.83161ZM9.83161 22.9155V22.9422H10.8316V22.9155H9.83161ZM9.83161 22.9422V22.9689H10.8316V22.9422H9.83161ZM9.83161 22.9689V22.9957H10.8316V22.9689H9.83161ZM9.83161 22.9957V23.0224H10.8316V22.9957H9.83161ZM9.83161 23.0224V23.0492H10.8316V23.0224H9.83161ZM9.83161 23.0492V23.0761H10.8316V23.0492H9.83161ZM9.83161 23.0761V23.1029H10.8316V23.0761H9.83161ZM9.83161 23.1029V23.1298H10.8316V23.1029H9.83161ZM9.83161 23.1298V23.1567H10.8316V23.1298H9.83161ZM9.83161 23.1567V23.1836H10.8316V23.1567H9.83161ZM9.83161 23.1836V23.2105H10.8316V23.1836H9.83161ZM9.83161 23.2105V23.2375H10.8316V23.2105H9.83161ZM9.83161 23.2375V23.2645H10.8316V23.2375H9.83161ZM9.83161 23.2645V23.2915H10.8316V23.2645H9.83161ZM9.83161 23.2915V23.3185H10.8316V23.2915H9.83161ZM9.83161 23.3185V23.3456H10.8316V23.3185H9.83161ZM9.83161 23.3456V23.3726H10.8316V23.3456H9.83161ZM9.83161 23.3726V23.3997H10.8316V23.3726H9.83161ZM9.83161 23.3997V23.4268H10.8316V23.3997H9.83161ZM9.83161 23.4268V23.4539H10.8316V23.4268H9.83161ZM9.83161 23.4539V23.4811H10.8316V23.4539H9.83161ZM9.83161 23.4811V23.5082H10.8316V23.4811H9.83161ZM9.83161 23.5082V23.5354H10.8316V23.5082H9.83161ZM9.83161 23.5354V23.5626H10.8316V23.5354H9.83161ZM9.83161 23.5626V23.5898H10.8316V23.5626H9.83161ZM9.83161 23.5898V23.617H10.8316V23.5898H9.83161ZM9.83161 23.617V23.6443H10.8316V23.617H9.83161ZM9.83161 23.6443V23.6715H10.8316V23.6443H9.83161ZM9.83161 23.6715V23.6988H10.8316V23.6715H9.83161ZM9.83161 23.6988V23.7261H10.8316V23.6988H9.83161ZM9.83161 23.7261V23.7534H10.8316V23.7261H9.83161ZM9.83161 23.7534V23.7807H10.8316V23.7534H9.83161ZM9.83161 23.7807V23.808H10.8316V23.7807H9.83161ZM9.83161 23.808V23.8354H10.8316V23.808H9.83161ZM9.83161 23.8354V23.8627H10.8316V23.8354H9.83161ZM9.83161 23.8627V23.8901H10.8316V23.8627H9.83161ZM9.83161 23.8901V23.9175H10.8316V23.8901H9.83161ZM9.83161 23.9175V23.9449H10.8316V23.9175H9.83161ZM9.83161 23.9449V23.9723H10.8316V23.9449H9.83161ZM9.83161 23.9723V23.9997H10.8316V23.9723H9.83161ZM9.83161 23.9997V24.0271H10.8316V23.9997H9.83161ZM9.83161 24.0271V24.0546H10.8316V24.0271H9.83161ZM9.83161 24.0546V24.082H10.8316V24.0546H9.83161ZM9.83161 24.082V24.1095H10.8316V24.082H9.83161ZM9.83161 24.1095V24.137H10.8316V24.1095H9.83161ZM9.83161 24.137V24.1644H10.8316V24.137H9.83161ZM9.83161 24.1644V24.1919H10.8316V24.1644H9.83161ZM9.83161 24.1919V24.2194H10.8316V24.1919H9.83161ZM9.83161 24.2194V24.2469H10.8316V24.2194H9.83161ZM9.83161 24.2469V24.2744H10.8316V24.2469H9.83161ZM9.83161 24.2744V24.302H10.8316V24.2744H9.83161ZM9.83161 24.302V24.3295H10.8316V24.302H9.83161ZM9.83161 24.3295V24.357H10.8316V24.3295H9.83161ZM9.83161 24.357V24.3846H10.8316V24.357H9.83161ZM9.83161 24.3846V24.4121H10.8316V24.3846H9.83161ZM9.83161 24.4121V24.4397H10.8316V24.4121H9.83161ZM9.83161 24.4397V24.4672H10.8316V24.4397H9.83161ZM9.83161 24.4672V24.4948H10.8316V24.4672H9.83161ZM9.83161 24.4948V24.5224H10.8316V24.4948H9.83161ZM9.83161 24.5224V24.5499H10.8316V24.5224H9.83161ZM9.83161 24.5499V24.5775H10.8316V24.5499H9.83161ZM9.83161 24.5775V24.6051H10.8316V24.5775H9.83161ZM9.83161 24.6051V24.6327H10.8316V24.6051H9.83161ZM9.83161 24.6327V24.6603H10.8316V24.6327H9.83161ZM9.83161 24.6603V24.6879H10.8316V24.6603H9.83161ZM9.83161 24.6879V24.7154H10.8316V24.6879H9.83161ZM9.83161 24.7154V24.743H10.8316V24.7154H9.83161ZM9.83161 24.743V24.7706H10.8316V24.743H9.83161ZM9.83161 24.7706V24.7982H10.8316V24.7706H9.83161ZM9.83161 24.7982V24.8258H10.8316V24.7982H9.83161ZM9.83161 24.8258V24.8534H10.8316V24.8258H9.83161ZM9.83161 24.8534V24.881H10.8316V24.8534H9.83161ZM9.83161 24.881V24.9086H10.8316V24.881H9.83161ZM9.83161 24.9086V24.9362H10.8316V24.9086H9.83161ZM9.83161 24.9362V24.9638H10.8316V24.9362H9.83161ZM9.83161 24.9638V24.9914H10.8316V24.9638H9.83161ZM9.83161 24.9914V25.019H10.8316V24.9914H9.83161ZM9.83161 25.019V25.0466H10.8316V25.019H9.83161ZM9.83161 25.0466V25.0742H10.8316V25.0466H9.83161ZM9.83161 25.0742V25.1017H10.8316V25.0742H9.83161ZM9.83161 25.1017V25.1293H10.8316V25.1017H9.83161ZM9.83161 25.1293V25.1569H10.8316V25.1293H9.83161ZM9.83161 25.1569V25.1845H10.8316V25.1569H9.83161ZM9.83161 25.1845V25.212H10.8316V25.1845H9.83161ZM9.83161 25.212V25.2396H10.8316V25.212H9.83161ZM9.83161 25.2396V25.2672H10.8316V25.2396H9.83161ZM9.83161 25.2672V25.2947H10.8316V25.2672H9.83161ZM9.83161 25.2947V25.3223H10.8316V25.2947H9.83161ZM9.83161 25.3223V25.3498H10.8316V25.3223H9.83161ZM9.83161 25.3498V25.3773H10.8316V25.3498H9.83161ZM9.83161 25.3773V25.4049H10.8316V25.3773H9.83161ZM9.83161 25.4049V25.4324H10.8316V25.4049H9.83161ZM9.83161 25.4324V25.4599H10.8316V25.4324H9.83161ZM9.83161 25.4599V25.4874H10.8316V25.4599H9.83161ZM9.83161 25.4874V25.5149H10.8316V25.4874H9.83161ZM9.83161 25.5149V25.5424H10.8316V25.5149H9.83161ZM9.83161 25.5424V25.5444H10.8316V25.5424H9.83161ZM9.8844 25.768L10.3929 26.785L11.2873 26.3378L10.7788 25.3208L9.8844 25.768ZM11.2873 26.785L11.7788 25.802L10.8844 25.3548L10.3929 26.3378L11.2873 26.785ZM11.8316 25.5784V25.5699H10.8316V25.5784H11.8316ZM11.8316 25.5699V25.5424H10.8316V25.5699H11.8316ZM11.8316 25.5424V25.5149H10.8316V25.5424H11.8316ZM11.8316 25.5149V25.4874H10.8316V25.5149H11.8316ZM11.8316 25.4874V25.4599H10.8316V25.4874H11.8316ZM11.8316 25.4599V25.4324H10.8316V25.4599H11.8316ZM11.8316 25.4324V25.4049H10.8316V25.4324H11.8316ZM11.8316 25.4049V25.3773H10.8316V25.4049H11.8316ZM11.8316 25.3773V25.3498H10.8316V25.3773H11.8316ZM11.8316 25.3498V25.3223H10.8316V25.3498H11.8316ZM11.8316 25.3223V25.2947H10.8316V25.3223H11.8316ZM11.8316 25.2947V25.2672H10.8316V25.2947H11.8316ZM11.8316 25.2672V25.2396H10.8316V25.2672H11.8316ZM11.8316 25.2396V25.212H10.8316V25.2396H11.8316ZM11.8316 25.212V25.1845H10.8316V25.212H11.8316ZM11.8316 25.1845V25.1569H10.8316V25.1845H11.8316ZM11.8316 25.1569V25.1293H10.8316V25.1569H11.8316ZM11.8316 25.1293V25.1017H10.8316V25.1293H11.8316ZM11.8316 25.1017V25.0742H10.8316V25.1017H11.8316ZM11.8316 25.0742V25.0466H10.8316V25.0742H11.8316ZM11.8316 25.0466V25.019H10.8316V25.0466H11.8316ZM11.8316 25.019V24.9914H10.8316V25.019H11.8316ZM11.8316 24.9914V24.9638H10.8316V24.9914H11.8316ZM11.8316 24.9638V24.9362H10.8316V24.9638H11.8316ZM11.8316 24.9362V24.9086H10.8316V24.9362H11.8316ZM11.8316 24.9086V24.881H10.8316V24.9086H11.8316ZM11.8316 24.881V24.8534H10.8316V24.881H11.8316ZM11.8316 24.8534V24.8258H10.8316V24.8534H11.8316ZM11.8316 24.8258V24.7982H10.8316V24.8258H11.8316ZM11.8316 24.7982V24.7706H10.8316V24.7982H11.8316ZM11.8316 24.7706V24.743H10.8316V24.7706H11.8316ZM11.8316 24.743V24.7154H10.8316V24.743H11.8316ZM11.8316 24.7154V24.6879H10.8316V24.7154H11.8316ZM11.8316 24.6879V24.6603H10.8316V24.6879H11.8316ZM11.8316 24.6603V24.6327H10.8316V24.6603H11.8316ZM11.8316 24.6327V24.6051H10.8316V24.6327H11.8316ZM11.8316 24.6051V24.5775H10.8316V24.6051H11.8316ZM11.8316 24.5775V24.5499H10.8316V24.5775H11.8316ZM11.8316 24.5499V24.5224H10.8316V24.5499H11.8316ZM11.8316 24.5224V24.4948H10.8316V24.5224H11.8316ZM11.8316 24.4948V24.4672H10.8316V24.4948H11.8316ZM11.8316 24.4672V24.4397H10.8316V24.4672H11.8316ZM11.8316 24.4397V24.4121H10.8316V24.4397H11.8316ZM11.8316 24.4121V24.3846H10.8316V24.4121H11.8316ZM11.8316 24.3846V24.357H10.8316V24.3846H11.8316ZM11.8316 24.357V24.3295H10.8316V24.357H11.8316ZM11.8316 24.3295V24.302H10.8316V24.3295H11.8316ZM11.8316 24.302V24.2744H10.8316V24.302H11.8316ZM11.8316 24.2744V24.2469H10.8316V24.2744H11.8316ZM11.8316 24.2469V24.2194H10.8316V24.2469H11.8316ZM11.8316 24.2194V24.1919H10.8316V24.2194H11.8316ZM11.8316 24.1919V24.1644H10.8316V24.1919H11.8316ZM11.8316 24.1644V24.137H10.8316V24.1644H11.8316ZM11.8316 24.137V24.1095H10.8316V24.137H11.8316ZM11.8316 24.1095V24.082H10.8316V24.1095H11.8316ZM11.8316 24.082V24.0546H10.8316V24.082H11.8316ZM11.8316 24.0546V24.0271H10.8316V24.0546H11.8316ZM11.8316 24.0271V23.9997H10.8316V24.0271H11.8316ZM11.8316 23.9997V23.9723H10.8316V23.9997H11.8316ZM11.8316 23.9723V23.9449H10.8316V23.9723H11.8316ZM11.8316 23.9449V23.9175H10.8316V23.9449H11.8316ZM11.8316 23.9175V23.8901H10.8316V23.9175H11.8316ZM11.8316 23.8901V23.8627H10.8316V23.8901H11.8316ZM11.8316 23.8627V23.8354H10.8316V23.8627H11.8316ZM11.8316 23.8354V23.808H10.8316V23.8354H11.8316ZM11.8316 23.808V23.7807H10.8316V23.808H11.8316ZM11.8316 23.7807V23.7534H10.8316V23.7807H11.8316ZM11.8316 23.7534V23.7261H10.8316V23.7534H11.8316ZM11.8316 23.7261V23.6988H10.8316V23.7261H11.8316ZM11.8316 23.6988V23.6715H10.8316V23.6988H11.8316ZM11.8316 23.6715V23.6443H10.8316V23.6715H11.8316ZM11.8316 23.6443V23.617H10.8316V23.6443H11.8316ZM11.8316 23.617V23.5898H10.8316V23.617H11.8316ZM11.8316 23.5898V23.5626H10.8316V23.5898H11.8316ZM11.8316 23.5626V23.5354H10.8316V23.5626H11.8316ZM11.8316 23.5354V23.5082H10.8316V23.5354H11.8316ZM11.8316 23.5082V23.4811H10.8316V23.5082H11.8316ZM11.8316 23.4811V23.4539H10.8316V23.4811H11.8316ZM11.8316 23.4539V23.4268H10.8316V23.4539H11.8316ZM11.8316 23.4268V23.3997H10.8316V23.4268H11.8316ZM11.8316 23.3997V23.3726H10.8316V23.3997H11.8316ZM11.8316 23.3726V23.3456H10.8316V23.3726H11.8316ZM11.8316 23.3456V23.3185H10.8316V23.3456H11.8316ZM11.8316 23.3185V23.2915H10.8316V23.3185H11.8316ZM11.8316 23.2915V23.2645H10.8316V23.2915H11.8316ZM11.8316 23.2645V23.2375H10.8316V23.2645H11.8316ZM11.8316 23.2375V23.2105H10.8316V23.2375H11.8316ZM11.8316 23.2105V23.1836H10.8316V23.2105H11.8316ZM11.8316 23.1836V23.1567H10.8316V23.1836H11.8316ZM11.8316 23.1567V23.1298H10.8316V23.1567H11.8316ZM11.8316 23.1298V23.1029H10.8316V23.1298H11.8316ZM11.8316 23.1029V23.0761H10.8316V23.1029H11.8316ZM11.8316 23.0761V23.0492H10.8316V23.0761H11.8316ZM11.8316 23.0492V23.0224H10.8316V23.0492H11.8316ZM11.8316 23.0224V22.9957H10.8316V23.0224H11.8316ZM11.8316 22.9957V22.9689H10.8316V22.9957H11.8316ZM11.8316 22.9689V22.9422H10.8316V22.9689H11.8316ZM11.8316 22.9422V22.9155H10.8316V22.9422H11.8316ZM11.8316 22.9155V22.8888H10.8316V22.9155H11.8316ZM11.8316 22.8888V22.8621H10.8316V22.8888H11.8316ZM11.8316 22.8621V22.8355H10.8316V22.8621H11.8316ZM11.8316 22.8355V22.8089H10.8316V22.8355H11.8316ZM11.8316 22.8089V22.7823H10.8316V22.8089H11.8316ZM11.8316 22.7823V22.7558H10.8316V22.7823H11.8316ZM11.8316 22.7558V22.7293H10.8316V22.7558H11.8316ZM11.8316 22.7293V22.7028H10.8316V22.7293H11.8316ZM11.8316 22.7028V22.6763H10.8316V22.7028H11.8316ZM11.8316 22.6763V22.6499H10.8316V22.6763H11.8316ZM11.8316 22.6499V22.6235H10.8316V22.6499H11.8316ZM11.8316 22.6235V22.5971H10.8316V22.6235H11.8316ZM11.8316 22.5971V22.5708H10.8316V22.5971H11.8316ZM11.8316 22.5708V22.5444H10.8316V22.5708H11.8316ZM11.8316 22.5444V22.5182H10.8316V22.5444H11.8316ZM11.8316 22.5182V22.4919H10.8316V22.5182H11.8316ZM11.8316 22.4919V22.4657H10.8316V22.4919H11.8316ZM11.8316 22.4657V22.4395H10.8316V22.4657H11.8316ZM11.8316 22.4395V22.4133H10.8316V22.4395H11.8316ZM11.8316 22.4133V22.3872H10.8316V22.4133H11.8316ZM11.8316 22.3872V22.3611H10.8316V22.3872H11.8316ZM11.8316 22.3611V22.335H10.8316V22.3611H11.8316ZM11.8316 22.335V22.309H10.8316V22.335H11.8316ZM11.8316 22.309V22.283H10.8316V22.309H11.8316ZM11.8316 22.283V22.2571H10.8316V22.283H11.8316ZM11.8316 22.2571V22.2311H10.8316V22.2571H11.8316ZM11.8316 22.2311V22.2053H10.8316V22.2311H11.8316ZM11.8316 22.2053V22.1794H10.8316V22.2053H11.8316ZM11.8316 22.1794V22.1536H10.8316V22.1794H11.8316ZM11.8316 22.1536V22.1278H10.8316V22.1536H11.8316ZM11.8316 22.1278V22.102H10.8316V22.1278H11.8316ZM11.8316 22.102V22.0763H10.8316V22.102H11.8316ZM11.8316 22.0763V22.0507H10.8316V22.0763H11.8316ZM11.8316 22.0507V22.025H10.8316V22.0507H11.8316ZM11.8316 22.025V21.9994H10.8316V22.025H11.8316ZM11.8316 21.9994V21.9739H10.8316V21.9994H11.8316ZM11.8316 21.9739V21.9483H10.8316V21.9739H11.8316ZM11.8316 21.9483V21.9229H10.8316V21.9483H11.8316ZM11.8316 21.9229V21.8974H10.8316V21.9229H11.8316ZM11.8316 21.8974V21.872H10.8316V21.8974H11.8316ZM11.8316 21.872V21.8466H10.8316V21.872H11.8316ZM11.8316 21.8466V21.8213H10.8316V21.8466H11.8316ZM11.8316 21.8213V21.796H10.8316V21.8213H11.8316ZM11.8316 21.796V21.7708H10.8316V21.796H11.8316ZM11.8316 21.7708V21.7456H10.8316V21.7708H11.8316ZM11.8316 21.7456V21.7204H10.8316V21.7456H11.8316ZM11.8316 21.7204V21.6953H10.8316V21.7204H11.8316ZM11.8316 21.6953V21.6702H10.8316V21.6953H11.8316ZM11.8316 21.6702V21.6452H10.8316V21.6702H11.8316ZM11.8316 21.6452V21.6202H10.8316V21.6452H11.8316ZM11.8316 21.6202V21.5953H10.8316V21.6202H11.8316ZM11.8316 21.5953V21.5704H10.8316V21.5953H11.8316ZM11.8316 21.5704V21.5455H10.8316V21.5704H11.8316ZM11.8316 21.5455V21.5207H10.8316V21.5455H11.8316ZM11.8316 21.5207V21.4959H10.8316V21.5207H11.8316ZM11.8316 21.4959V21.4712H10.8316V21.4959H11.8316ZM11.8316 21.4712V21.4465H10.8316V21.4712H11.8316ZM11.8316 21.4465V21.4219H10.8316V21.4465H11.8316ZM11.8316 21.4219V21.3973H10.8316V21.4219H11.8316ZM11.8316 21.3973V21.3728H10.8316V21.3973H11.8316ZM11.8316 21.3728V21.3483H10.8316V21.3728H11.8316ZM11.8316 21.3483V21.3238H10.8316V21.3483H11.8316ZM11.8316 21.3238V21.2994H10.8316V21.3238H11.8316ZM11.8316 21.2994V21.2751H10.8316V21.2994H11.8316ZM11.8316 21.2751V21.2508H10.8316V21.2751H11.8316ZM11.8316 21.2508V21.2265H10.8316V21.2508H11.8316ZM11.8316 21.2265V21.2023H10.8316V21.2265H11.8316ZM11.8316 21.2023V21.1782H10.8316V21.2023H11.8316ZM11.8316 21.1782V21.1541H10.8316V21.1782H11.8316ZM11.8316 21.1541V21.13H10.8316V21.1541H11.8316ZM11.8316 21.13V21.106H10.8316V21.13H11.8316ZM11.8316 21.106V21.0821H10.8316V21.106H11.8316ZM11.8316 21.0821V21.0582H10.8316V21.0821H11.8316ZM11.8316 21.0582V21.0343H10.8316V21.0582H11.8316ZM11.8316 21.0343V21.0105H10.8316V21.0343H11.8316ZM11.8316 21.0105V20.9868H10.8316V21.0105H11.8316ZM11.8316 20.9868V20.9631H10.8316V20.9868H11.8316ZM11.8316 20.9631V20.9395H10.8316V20.9631H11.8316ZM11.8316 20.9395V20.9159H10.8316V20.9395H11.8316ZM11.8316 20.9159V20.8923H10.8316V20.9159H11.8316ZM11.8316 20.8923V20.8689H10.8316V20.8923H11.8316ZM11.8316 20.8689V20.8454H10.8316V20.8689H11.8316ZM11.8316 20.8454V20.8221H10.8316V20.8454H11.8316ZM11.8316 20.8221V20.7988H10.8316V20.8221H11.8316ZM11.8316 20.7988V20.7755H10.8316V20.7988H11.8316ZM11.8316 20.7755V20.7523H10.8316V20.7755H11.8316ZM11.8316 20.7523V20.7292H10.8316V20.7523H11.8316ZM11.8316 20.7292V20.7061H10.8316V20.7292H11.8316ZM11.8316 20.7061V20.6831H10.8316V20.7061H11.8316ZM11.8316 20.6831V20.6601H10.8316V20.6831H11.8316ZM11.8316 20.6601V20.6372H10.8316V20.6601H11.8316ZM11.8316 20.6372V20.6143H10.8316V20.6372H11.8316ZM11.8316 20.6143V20.5915H10.8316V20.6143H11.8316ZM11.8316 20.5915V20.5688H10.8316V20.5915H11.8316ZM11.8316 20.5688V20.5461H10.8316V20.5688H11.8316ZM11.8316 20.5461V20.5235H10.8316V20.5461H11.8316ZM11.8316 20.5235V20.5009H10.8316V20.5235H11.8316ZM11.8316 20.5009V20.4784H10.8316V20.5009H11.8316ZM11.8316 20.4784V20.456H10.8316V20.4784H11.8316ZM11.8316 20.456V20.4336H10.8316V20.456H11.8316ZM11.8316 20.4336V20.4113H10.8316V20.4336H11.8316ZM11.8316 20.4113V20.389H10.8316V20.4113H11.8316ZM11.8316 20.389V20.3668H10.8316V20.389H11.8316ZM11.8316 20.3668V20.3447H10.8316V20.3668H11.8316ZM11.8316 20.3447V20.3226H10.8316V20.3447H11.8316ZM11.8316 20.3226V20.3006H10.8316V20.3226H11.8316ZM11.8316 20.3006V20.2787H10.8316V20.3006H11.8316ZM11.8316 20.2787V20.2568H10.8316V20.2787H11.8316ZM11.8316 20.2568V20.235H10.8316V20.2568H11.8316ZM11.8316 20.235V20.2133H10.8316V20.235H11.8316ZM11.8316 20.2133V20.1916H10.8316V20.2133H11.8316ZM11.8316 20.1916V20.17H10.8316V20.1916H11.8316ZM11.8316 20.17V20.1484H10.8316V20.17H11.8316ZM11.8316 20.1484V20.1269H10.8316V20.1484H11.8316ZM11.8316 20.1269V20.1055H10.8316V20.1269H11.8316ZM11.8316 20.1055V20.0842H10.8316V20.1055H11.8316ZM11.8316 20.0842V20.0629H10.8316V20.0842H11.8316ZM11.8316 20.0629V20.0417H10.8316V20.0629H11.8316ZM11.8316 20.0417V20.0205H10.8316V20.0417H11.8316ZM11.8316 20.0205V19.9994H10.8316V20.0205H11.8316ZM11.8316 19.9994V19.9784H10.8316V19.9994H11.8316ZM11.8316 19.9784V19.9575H10.8316V19.9784H11.8316ZM11.8316 19.9575V19.9366H10.8316V19.9575H11.8316ZM11.8316 19.9366V19.9158H10.8316V19.9366H11.8316ZM11.8316 19.9158V19.8951H10.8316V19.9158H11.8316ZM11.8316 19.8951V19.8744H10.8316V19.8951H11.8316ZM11.8316 19.8744V19.8538H10.8316V19.8744H11.8316ZM11.8316 19.8538V19.8333H10.8316V19.8538H11.8316ZM11.8316 19.8333V19.8128H10.8316V19.8333H11.8316ZM11.8316 19.8128V19.7925H10.8316V19.8128H11.8316ZM11.8316 19.7925V19.7722H10.8316V19.7925H11.8316ZM11.8316 19.7722V19.7519H10.8316V19.7722H11.8316ZM11.8316 19.7519V19.7318H10.8316V19.7519H11.8316ZM11.8316 19.7318V19.7117H10.8316V19.7318H11.8316ZM11.8316 19.7117V19.6917H10.8316V19.7117H11.8316ZM11.8316 19.6917V19.6717H10.8316V19.6917H11.8316ZM11.8316 19.6717V19.6519H10.8316V19.6717H11.8316ZM11.8316 19.6519V19.6321H10.8316V19.6519H11.8316ZM11.8316 19.6321V19.6123H10.8316V19.6321H11.8316ZM11.8316 19.6123V19.5927H10.8316V19.6123H11.8316ZM11.8316 19.5927V19.5731H10.8316V19.5927H11.8316ZM11.8316 19.5731V19.5537H10.8316V19.5731H11.8316ZM11.8316 19.5537V19.5342H10.8316V19.5537H11.8316ZM11.8316 19.5342V19.5149H10.8316V19.5342H11.8316ZM11.8316 19.5149V19.4956H10.8316V19.5149H11.8316ZM11.8316 19.4956V19.4765H10.8316V19.4956H11.8316ZM11.8316 19.4765V19.4574H10.8316V19.4765H11.8316ZM11.8316 19.4574V19.4383H10.8316V19.4574H11.8316ZM11.8316 19.4383V19.4194H10.8316V19.4383H11.8316ZM11.8316 19.4194V19.4005H10.8316V19.4194H11.8316ZM11.8316 19.4005V19.3817H10.8316V19.4005H11.8316ZM11.8316 19.3817V19.363H10.8316V19.3817H11.8316ZM11.8316 19.363V19.3444H10.8316V19.363H11.8316ZM11.8316 19.3444V19.3259H10.8316V19.3444H11.8316ZM11.8316 19.3259V19.3074H10.8316V19.3259H11.8316ZM11.8316 19.3074V19.289H10.8316V19.3074H11.8316ZM11.8316 19.289V19.2707H10.8316V19.289H11.8316ZM11.8316 19.2707V19.2525H10.8316V19.2707H11.8316ZM11.8316 19.2525V19.2344H10.8316V19.2525H11.8316ZM11.8316 19.2344V19.2163H10.8316V19.2344H11.8316ZM11.8316 19.2163V19.1983H10.8316V19.2163H11.8316ZM11.8316 19.1983V19.1804H10.8316V19.1983H11.8316ZM11.8316 19.1804V19.1626H10.8316V19.1804H11.8316ZM11.8316 19.1626V19.1449H10.8316V19.1626H11.8316ZM11.8316 19.1449V19.1273H10.8316V19.1449H11.8316ZM11.8316 19.1273V19.1097H10.8316V19.1273H11.8316ZM11.8316 19.1097V19.0922H10.8316V19.1097H11.8316ZM11.8316 19.0922V19.0749H10.8316V19.0922H11.8316ZM11.8316 19.0749V19.0576H10.8316V19.0749H11.8316ZM11.8316 19.0576V19.0404H10.8316V19.0576H11.8316ZM11.8316 19.0404V19.0232H10.8316V19.0404H11.8316ZM11.8316 19.0232V19.0062H10.8316V19.0232H11.8316ZM11.8316 19.0062V18.9892H10.8316V19.0062H11.8316ZM11.8316 18.9892V18.9724H10.8316V18.9892H11.8316ZM11.8316 18.9724V18.9556H10.8316V18.9724H11.8316ZM11.8316 18.9556V18.9389H10.8316V18.9556H11.8316ZM11.8316 18.9389V18.9223H10.8316V18.9389H11.8316ZM11.8316 18.9223V18.9058H10.8316V18.9223H11.8316ZM11.8316 18.9058V18.8894H10.8316V18.9058H11.8316ZM11.8316 18.8894V18.8731H10.8316V18.8894H11.8316ZM11.8316 18.8731V18.8568H10.8316V18.8731H11.8316ZM11.8316 18.8568V18.8407H10.8316V18.8568H11.8316ZM11.8316 18.8407V18.8246H10.8316V18.8407H11.8316ZM11.8316 18.8246V18.8087H10.8316V18.8246H11.8316ZM11.8316 18.8087V18.7928H10.8316V18.8087H11.8316ZM11.8316 18.7928V18.777H10.8316V18.7928H11.8316ZM11.8316 18.777V18.7613H10.8316V18.777H11.8316ZM11.8316 18.7613V18.7457H10.8316V18.7613H11.8316ZM11.8316 18.7457V18.7302H10.8316V18.7457H11.8316ZM11.8316 18.7302V18.7148H10.8316V18.7302H11.8316ZM11.8316 18.7148V18.6995H10.8316V18.7148H11.8316ZM11.8316 18.6995V18.6843H10.8316V18.6995H11.8316ZM11.8316 18.6843V18.6691H10.8316V18.6843H11.8316ZM11.8316 18.6691V18.6541H10.8316V18.6691H11.8316ZM11.8316 18.6541V18.6392H10.8316V18.6541H11.8316ZM11.8316 18.6392V18.6243H10.8316V18.6392H11.8316ZM11.8316 18.6243V18.6096H10.8316V18.6243H11.8316ZM11.8316 18.6096V18.5949H10.8316V18.6096H11.8316ZM11.8316 18.5949V18.5804H10.8316V18.5949H11.8316ZM11.8316 18.5804V18.5659H10.8316V18.5804H11.8316ZM11.8316 18.5659V18.5516H10.8316V18.5659H11.8316ZM11.8316 18.5516V18.5373H10.8316V18.5516H11.8316ZM11.8316 18.5373V18.5231H10.8316V18.5373H11.8316ZM11.8316 18.5231V18.5091H10.8316V18.5231H11.8316ZM11.8316 18.5091V18.4951H10.8316V18.5091H11.8316ZM11.8316 18.4951V18.4812H10.8316V18.4951H11.8316ZM11.8316 18.4812V18.4675H10.8316V18.4812H11.8316ZM11.8316 18.4675V18.4538H10.8316V18.4675H11.8316ZM11.8316 18.4538V18.4402H10.8316V18.4538H11.8316ZM11.8316 18.4402V18.4268H10.8316V18.4402H11.8316ZM11.8316 18.4268V18.4134H10.8316V18.4268H11.8316ZM11.8316 18.4134V18.4001H10.8316V18.4134H11.8316ZM11.8316 18.4001V18.387H10.8316V18.4001H11.8316ZM11.8316 18.387V18.3739H10.8316V18.387H11.8316ZM11.8316 18.3739V18.3609H10.8316V18.3739H11.8316ZM11.8316 18.3609V18.3481H10.8316V18.3609H11.8316ZM11.8316 18.3481V18.3353H10.8316V18.3481H11.8316ZM11.8316 18.3353V18.3227H10.8316V18.3353H11.8316ZM11.8316 18.3227V18.3101H10.8316V18.3227H11.8316ZM11.8316 18.3101V18.2977H10.8316V18.3101H11.8316ZM11.8316 18.2977V18.2854H10.8316V18.2977H11.8316ZM11.8316 18.2854V18.2731H10.8316V18.2854H11.8316ZM11.8316 18.2731V18.261H10.8316V18.2731H11.8316ZM11.8316 18.261V18.249H10.8316V18.261H11.8316ZM11.8316 18.249V18.2371H10.8316V18.249H11.8316ZM11.8316 18.2371V18.2252H10.8316V18.2371H11.8316ZM11.8316 18.2252V18.2135H10.8316V18.2252H11.8316ZM11.8316 18.2135V18.2019H10.8316V18.2135H11.8316ZM11.8316 18.2019V18.1905H10.8316V18.2019H11.8316ZM11.8316 18.1905V18.1791H10.8316V18.1905H11.8316ZM11.8316 18.1791V18.1678H10.8316V18.1791H11.8316ZM11.8316 18.1678V18.1566H10.8316V18.1678H11.8316ZM11.8316 18.1566V18.1456H10.8316V18.1566H11.8316ZM11.8316 18.1456V18.1412H10.8316V18.1456H11.8316ZM11.3316 18.6412H12.5686V17.6412H11.3316V18.6412ZM12.947 17.8144L12.0834 16.8144L11.3266 17.468L12.1902 18.468L12.947 17.8144ZM11.705 16.6412H10.8316V17.6412H11.705V16.6412ZM10.8316 16.6412H2V17.6412H10.8316V16.6412ZM2.5 17.1412V16.4667H1.5V17.1412H2.5ZM2.39564 16.7725L5.14962 13.2085L4.35833 12.5971L1.60436 16.161L2.39564 16.7725ZM5.14962 13.2085L5.25397 13.0734L4.46269 12.462L4.35833 12.5971L5.14962 13.2085ZM5.35833 12.7677V12.597H4.35833V12.7677H5.35833ZM5.35833 12.597V9.21345H4.35833V12.597H5.35833ZM5.23674 8.88664L4.23674 7.72874L3.47992 8.38236L4.47992 9.54026L5.23674 8.88664ZM19.9995 16.6412H18.3116V17.6412H19.9995V16.6412ZM19.4995 16.644V17.1412H20.4995V16.644H19.4995ZM16.5339 13.2339L19.614 16.9625L20.385 16.3256L17.3049 12.597L16.5339 13.2339ZM16.4194 13.0953L16.5339 13.2339L17.3049 12.597L17.1904 12.4584L16.4194 13.0953ZM16.3049 12.597V12.7769H17.3049V12.597H16.3049ZM16.3049 6.5V12.597H17.3049V6.5H16.3049ZM12.3049 2.5C14.514 2.5 16.3049 4.29086 16.3049 6.5H17.3049C17.3049 3.73858 15.0663 1.5 12.3049 1.5V2.5ZM9.35833 2.5H12.3049V1.5H9.35833V2.5ZM6.62539 3.57918C7.34092 2.90937 8.30127 2.5 9.35833 2.5V1.5C8.03756 1.5 6.83545 2.01277 5.94199 2.84914L6.62539 3.57918ZM5.25123 2.78365L5.90528 3.54097L6.66211 2.88735L6.00805 2.13003L5.25123 2.78365ZM9.35833 0.5C7.78902 0.5 6.35944 1.10314 5.29058 2.08936L5.9687 2.82431C6.86014 2.00179 8.05007 1.5 9.35833 1.5V0.5ZM12.3049 0.5H9.35833V1.5H12.3049V0.5ZM18.3049 6.5C18.3049 3.18629 15.6186 0.5 12.3049 0.5V1.5C15.0663 1.5 17.3049 3.73858 17.3049 6.5H18.3049ZM18.3049 12.4172V6.5H17.3049V12.4172H18.3049ZM21.2705 15.8273L18.1904 12.0988L17.4194 12.7357L20.4995 16.4642L21.2705 15.8273ZM21.385 15.966L21.2705 15.8273L20.4995 16.4642L20.614 16.6028L21.385 15.966ZM21.4995 16.4642V16.2844H20.4995V16.4642H21.4995ZM21.4995 17.6412V16.4642H20.4995V17.6412H21.4995ZM21.4995 18.1412V17.6412H20.4995V18.1412H21.4995ZM20.4995 18.6412H20.9995V17.6412H20.4995V18.6412ZM19.1752 18.6412H20.4995V17.6412H19.1752V18.6412ZM17.9331 17.468L18.7968 18.468L19.5536 17.8144L18.69 16.8144L17.9331 17.468Z" fill="black"/>
</svg>
